<svg xmlns="http://www.w3.org/2000/svg" xmlns:xlink="http://www.w3.org/1999/xlink" width="752.795" height="587.951" viewBox="0 0 752.795 587.951">
  <defs>
    <clipPath id="clip-path">
      <rect id="Rectangle_26834" data-name="Rectangle 26834" width="78" height="52" transform="matrix(0.948, -0.318, 0.318, 0.948, 1501.413, 1799.27)" fill="none"/>
    </clipPath>
  </defs>
  <g id="Group_17554" data-name="Group 17554" transform="translate(-127 -1100)">
    <g id="Group_17544" data-name="Group 17544" transform="translate(-5200.681 -4631.988)">
      <path id="Path_28193" data-name="Path 28193" d="M5926.5,5935.854c24.616,41.487,67.24,51.749,91.856,93.236,11.581,19.52,23.276,39.3,29.173,61.188s5.455,46.459-6.411,66.965c-20.96,36.221-70.3,49.133-112.924,47.256s-83.939-14.459-126.771-12.528c-49.14,2.215-96,23.313-139.756,46.521s-86.7,49.214-134.313,62.959-102.123,13.444-140.55-13.566c-47.14-33.134-57.817-98.006-43.7-153.928,20.253-80.222,86.147-150.875,168.261-180.412,37.25-13.4,77.413-18.9,112.681-36.8,50.043-25.4,83.639-72.115,116.681-115.939,14.849-19.693,30.433-39.573,51.313-53.568,20.947-14.04,51.107-19.936,74.378-11.032,12.812,4.9,20.841,16.981,26.086,29.274,7.488,17.55,11.394,29.976,13.685,45.181,3.093,20.531.417,40.373,4.288,60.7C5914.717,5893.657,5914.484,5915.613,5926.5,5935.854Z" fill="#3a9184" opacity="0.1"/>
      <g id="Group_17543" data-name="Group 17543" transform="translate(5442.701 5779.182)">
        <g id="Group_17393" data-name="Group 17393" transform="translate(52.083 433.47)">
          <g id="Group_17386" data-name="Group 17386">
            <path id="Path_28194" data-name="Path 28194" d="M6057.768,6670.524c-.039,6.574-5.915,14.215-9.057,19.742a98.3,98.3,0,0,1-15.32,20.188c-13.245,13.362-40.085,27.519-57.461,34.054-5.722,2.153-11.132,4.092-16.368,5.856-9.638,3.258-18.656,5.915-27.751,8.145a416.63,416.63,0,0,1-47.144,8.456l-.426.058a300.056,300.056,0,0,1-73.073.485q-11.025-1.251-21.934-3.336-5.41-1.017-10.762-2.269-13.555-3.113-26.763-7.524a274.627,274.627,0,0,1-31.629-12.722c-6.419-3.025-12.722-6.341-18.87-9.89-2.249-1.3-4.5-2.638-6.71-4.014a240.267,240.267,0,0,1-31.707-23.078c-5.934-5.139-11.6-10.9-15.165-17.958-3.006-5.915-9.58-17.764-2.152-22.457,6.69-4.228,24.066-.582,31.727-.582h38.63q15.185,0,30.37.019,19.49,0,38.96.02h6.322l151.556.058h9.425q40.143,0,80.267.02h.232c6.651,0,19.8-3.083,23.7,2.6A6.989,6.989,0,0,1,6057.768,6670.524Z" transform="translate(-5642.063 -6662.218)" fill="#f8f0ec"/>
          </g>
          <g id="Group_17387" data-name="Group 17387" transform="translate(51.241 32.852)">
            <path id="Path_28195" data-name="Path 28195" d="M5764.785,6757.374c-3.025-4.79-4.771-9.5-1.9-14.816,1.474-2.734,3.433-5.1,4-8.2.756-4.247-1.145-7.524-5.43-8.339-5.547-1.067-10.181,1.9-13.614,5.934a28.557,28.557,0,0,0-5.411,26.53c2.211,1.376,4.461,2.715,6.71,4.014,6.147,3.549,12.45,6.865,18.869,9.89a4.757,4.757,0,0,0,1.28-1.493C5771.786,6766.313,5767,6760.884,5764.785,6757.374Z" transform="translate(-5741.229 -6725.796)" fill="#e0cfc7"/>
          </g>
          <g id="Group_17388" data-name="Group 17388" transform="translate(32.718 1.461)">
            <path id="Path_28196" data-name="Path 28196" d="M5746.433,6665.045h-33.22a15.338,15.338,0,0,1,.795,4.014c.388,7.5-9.057,10.394-8.61,17.977.271,4.46,4.189,8.242,8.785,7.485,5.664-.911,9.483-8.242,13.207-11.984a66.281,66.281,0,0,1,10.007-8.63c4.674-3.161,9.639-3.665,15.088-2.986,6.051.736,14.429,3.8,20.266.814a7.549,7.549,0,0,0,4.054-6.671Q5761.617,6665.064,5746.433,6665.045Z" transform="translate(-5705.382 -6665.045)" fill="#e0cfc7"/>
          </g>
          <g id="Group_17389" data-name="Group 17389" transform="translate(109.636 1.5)">
            <path id="Path_28197" data-name="Path 28197" d="M5897.982,6679.994c-1.319-3.626-2.638-7.757-4.635-11.248,1.241-.388,2.462-.795,3.685-1.183,1.183-.388.679-2.269-.5-1.881-1.376.446-2.851.833-4.324,1.261-.194-.272-.388-.563-.6-.815-.29-.349-.582-.7-.892-1.008H5887.7a14.151,14.151,0,0,1,2.5,2.443,25.071,25.071,0,0,0-2.7,1.047c-6.477-.97-14.7-1.106-17.55,6.011-1.455,3.646-.5,7.7.911,11.19,2.075,5.081,4.673,9.793,5.992,15.185,1.241,5.1,2.4,11.577.988,16.794-1.435,5.256-7.775,8.106-11.4,11.849-5.876,6.07-10.531,14.157-11.947,22.555a17.631,17.631,0,0,0-.252,3.587q13.207,4.422,26.763,7.524c1.668-8.94-.544-18.5,1.9-27.305,1.59-5.76,5.74-9.6,9.464-14.04a45.117,45.117,0,0,0,7.427-11.752C5903.9,6700.26,5901.551,6689.71,5897.982,6679.994Z" transform="translate(-5854.241 -6665.12)" fill="#e0cfc7"/>
          </g>
          <g id="Group_17390" data-name="Group 17390" transform="translate(174.258 35.695)">
            <path id="Path_28198" data-name="Path 28198" d="M6115.642,6774.035c-7.718-8.184-16.271-15.63-23.155-24.59-3.685-4.79-6.361-11.189-11.345-14.777-5.042-3.646-11.442-3.529-17.415-3.239-4.693,9.5-17.3,12.043-26.976,13.614a51.447,51.447,0,0,1-18.559-.039c-6.633-1.338-12.9-4.053-19.374-5.915-4.615-1.338-21.525-5.566-19.315,5.081,1.222,5.817,9.27,9.734,14.215,11.946a49.458,49.458,0,0,0,34.616,2.153c11.616-3.607,22.05-9.135,34.616-8.242,9.464.679,15.126,10.336,19.665,17.667a105.678,105.678,0,0,1,7.485,14.874,50.041,50.041,0,0,0,4.693,9.328c9.1-2.23,18.113-4.887,27.751-8.145C6121.014,6780.047,6118.027,6776.575,6115.642,6774.035Z" transform="translate(-5979.305 -6731.299)" fill="#e0cfc7"/>
          </g>
          <g id="Group_17391" data-name="Group 17391" transform="translate(169.104 91.675)">
            <path id="Path_28199" data-name="Path 28199" d="M6018.686,6840.355c-6.632-1.318-13.265-.659-19.839.66-7.33,1.454-14.758,3.044-21.273,6.807a75.807,75.807,0,0,0-8.242,5.43,300.056,300.056,0,0,0,73.073-.485l.426-.058C6035.577,6847.221,6028.169,6842.256,6018.686,6840.355Z" transform="translate(-5969.331 -6839.637)" fill="#e0cfc7"/>
          </g>
          <g id="Group_17392" data-name="Group 17392" transform="translate(300.976 1.558)">
            <path id="Path_28200" data-name="Path 28200" d="M6233.968,6665.233h-9.425a38.342,38.342,0,0,0,5.683,8.067c7.834,8.921,18.345,16.232,22.786,27.674,1.959,5.043,1.105,10.124,2.269,15.224.679,3.025,2.327,5.741,5.353,6.826,6.38,2.289,16.988-.659,21.042-6.05,6.089-8.068-1.358-14.6-7.137-19.878a21.664,21.664,0,0,1-3.18-2.909c-.931-1.357-2.075-5-1.338-6.787.756-1.862,5.449-4.693,7.02-5.837a76.548,76.548,0,0,1,16.989-9.309c4.925-1.9,10.045-2.87,15.049-4.5,1.609-.523,3.8-1.2,5.159-2.5Q6274.091,6665.252,6233.968,6665.233Z" transform="translate(-6224.543 -6665.233)" fill="#e0cfc7"/>
          </g>
        </g>
        <g id="Group_17406" data-name="Group 17406" transform="translate(0 54.859)">
          <g id="Group_17394" data-name="Group 17394" transform="translate(26.384 16.749)">
            <path id="Path_28201" data-name="Path 28201" d="M5659.135,6004.785a114.156,114.156,0,0,0-29.887,15.23c.8-5.73,2.151-11.382,2.888-17.122.742-5.773.412-11.478.405-17.275a47.873,47.873,0,0,1,5.232-22.244c.565-1.109-1.107-2.092-1.674-.979a48.994,48.994,0,0,0-5.11,16.131c-.872,6.839.118,13.723-.395,20.579a98.214,98.214,0,0,1-1.466,10.382,114.648,114.648,0,0,0-32.112-13.1c-1.212-.292-1.73,1.578-.516,1.87a113,113,0,0,1,32.252,13.251c-.529,2.836-1.06,5.673-1.449,8.53a84.757,84.757,0,0,0,.153,20.386c1.41,13.059,2.39,26.271,2.667,39.426-3.477-5.9-9.652-10.471-14.717-14.781a224.6,224.6,0,0,0-21.656-16.227c-1.044-.69-2.016.987-.979,1.674a209.966,209.966,0,0,1,19.94,14.808c10.824,9.171,13.157,10.869,17.5,18.193,0,.1.007.191.008.287.14,14.628-2.1,29.138-2.8,43.727-.06,1.248,1.879,1.245,1.939,0,.672-13.98,2.778-27.886,2.809-41.9.009-4.326-.108-8.673-.278-13.023a93.691,93.691,0,0,1,27.025-22.463c1.092-.6.115-2.28-.979-1.675a95.04,95.04,0,0,0-26.176,21.331c-.4-8.571-1.071-17.147-1.953-25.617-.712-6.831-1.607-13.617-1-20.5.032-.361.079-.72.118-1.081a112.434,112.434,0,0,1,30.72-15.958C5660.827,6006.26,5660.322,6004.386,5659.135,6004.785Z" transform="translate(-5592.328 -5961.906)" fill="#5c876f"/>
          </g>
          <g id="Group_17395" data-name="Group 17395" transform="translate(0 88.378)">
            <path id="Path_28202" data-name="Path 28202" d="M5588.034,6118.744a13.724,13.724,0,0,0-.194-1.493c-.931-5.566-3.995-12.45-9.114-15.34-4.984-2.793-9.716-.737-14.642.795-2.87.893-5.837,1.318-8.766,2.018-.815.174-1.629.368-2.443.62a24.857,24.857,0,0,0-2.987,1.067c-6.109,2.637-8.009,6.806-8.475,13.207-.485,6.748-.038,14.234,5.605,18.83a15.058,15.058,0,0,0,2.579,1.746h.019a16.747,16.747,0,0,0,2,.912,24.078,24.078,0,0,0,12.527,1.008,41.529,41.529,0,0,0,9.755-2.772c.6-.252,1.183-.524,1.765-.814,7.1-3.511,12.509-9.328,12.489-17.764A18.207,18.207,0,0,0,5588.034,6118.744Z" transform="translate(-5541.267 -6100.529)" fill="#98b5a5"/>
          </g>
          <g id="Group_17396" data-name="Group 17396" transform="translate(67.013 94.182)">
            <path id="Path_28203" data-name="Path 28203" d="M5715.871,6130.437a35.708,35.708,0,0,0-.931-3.49,22.674,22.674,0,0,0-5.935-9.891,12.634,12.634,0,0,0-1.784-1.436c-.039-.039-.1-.058-.136-.1-3.491-2.308-7.776-3.064-11.946-3.471-4.809-.486-9.812-.543-14.273,1.279a14.588,14.588,0,0,0-7.97,7.37,11.877,11.877,0,0,0-.737,1.784c-2.346,6.633-.931,15.088,1.416,21.565a21.385,21.385,0,0,0,5.527,8.862c4.266,3.84,10.336,5.022,16.077,4.771a30.51,30.51,0,0,0,8.319-1.493c.6-.213,1.2-.446,1.785-.7a18.515,18.515,0,0,0,8.959-7.466,18.987,18.987,0,0,0,2.463-8.494c.038-.7.058-1.4.038-2.094A34.034,34.034,0,0,0,5715.871,6130.437Z" transform="translate(-5670.956 -6111.762)" fill="#98b5a5"/>
          </g>
          <g id="Group_17397" data-name="Group 17397" transform="translate(78.415 45.253)">
            <path id="Path_28204" data-name="Path 28204" d="M5736.563,6035.609a23.7,23.7,0,0,0-.932-3.433,30.457,30.457,0,0,0-1.221-3.006,20.764,20.764,0,0,0-.951-1.861,20.21,20.21,0,0,0-6.205-7.079,19.282,19.282,0,0,0-9.7-3.122h-.02c-.639-.02-1.3-.039-1.939-.039a33.056,33.056,0,0,0-14.913,4.13c-3.355,1.862-6.283,4.79-7.272,8.494-1.59,5.992,1.9,12.7,6.613,17.318a17.681,17.681,0,0,0,1.435,1.3,21.248,21.248,0,0,0,4.674,3.142,24.821,24.821,0,0,0,23.989-1.571,14.793,14.793,0,0,0,6.225-7.447A13.781,13.781,0,0,0,5736.563,6035.609Z" transform="translate(-5693.023 -6017.07)" fill="#98b5a5"/>
          </g>
          <g id="Group_17398" data-name="Group 17398" transform="translate(17.444 22.97)">
            <path id="Path_28205" data-name="Path 28205" d="M5618.661,6000.32a14.954,14.954,0,0,0-8.61-6.729,17.857,17.857,0,0,0-2-.523,23.839,23.839,0,0,0-5.41-.465,8.555,8.555,0,0,0,.427-9.521c-2.638-5-6.594-8.514-11.714-9.056a13.569,13.569,0,0,0-2.191-.059,16.6,16.6,0,0,0-3.375.562c-6.729,1.843-11.52,10.86-10.667,17.531v.078a11.731,11.731,0,0,0,.388,1.862,15.122,15.122,0,0,0,5.081,7.854,19.859,19.859,0,0,0-2.87,6.245,14.365,14.365,0,0,0-.427,2.017,14.622,14.622,0,0,0,.99,8.106c4.305,9.677,17.726,11.791,26.995,8.824.485-.155.97-.311,1.435-.5a1.064,1.064,0,0,0,.214-.1C5616.334,6022.583,5624.518,6010.27,5618.661,6000.32Z" transform="translate(-5575.025 -5973.946)" fill="#98b5a5"/>
          </g>
          <g id="Group_17399" data-name="Group 17399" transform="translate(55.164)">
            <path id="Path_28206" data-name="Path 28206" d="M5686.288,5938.752a12.023,12.023,0,0,0-.776-1.164,19.5,19.5,0,0,0-9.561-6.749c-.6-.213-1.221-.388-1.842-.543a25.523,25.523,0,0,0-3.976-.717,24.892,24.892,0,0,0-12.2,2.249c-.659.291-1.3.621-1.919.97-5.664,3.2-9.619,8.552-7.331,15.262.077.233.155.465.251.7.175.427.369.853.583,1.26,2.094,4,6.089,6.826,10.336,8.417a27.08,27.08,0,0,0,5.236,1.377q.959.145,1.92.232a27.522,27.522,0,0,0,10.433-1.066c.33-.1.66-.194.99-.311.387-.136.775-.271,1.144-.427a14.979,14.979,0,0,0,6.05-4.092C5689.178,5949.961,5689.081,5943.5,5686.288,5938.752Z" transform="translate(-5648.025 -5929.492)" fill="#98b5a5"/>
          </g>
          <g id="Group_17400" data-name="Group 17400" transform="translate(8.35 92.572)">
            <path id="Path_28207" data-name="Path 28207" d="M5573.658,6124.839q5.237,8.64,9.813,17.609c-.582.29-1.164.562-1.765.814q-4.217-8.262-9-16.232c-.892,4.422-5.488,8.61-8.184,11.655a70.4,70.4,0,0,0-5.1,6.342,16.744,16.744,0,0,1-2-.912c.1-.155.193-.291.31-.446,1.979-2.618,4.267-5,6.419-7.486,2.385-2.754,7.6-7.5,6.71-11.559a1.636,1.636,0,0,1,0-.31c-3.976-2.968-6.206-5.663-7.661-10.55a8.822,8.822,0,0,0-2.521-4.5c.814-.252,1.629-.446,2.443-.621a8.635,8.635,0,0,1,.659.989c1.067,1.823,1.222,4,1.92,5.954,1.184,3.394,3.937,5.488,6.75,7.5v.02c4.052-1.086,7.563-.814,11.713-.02,3.878.738,7.757-.058,11.674-.426a18.081,18.081,0,0,1,.116,2.017c-2.929.369-5.779,1.008-8.727.873C5582.346,6125.323,5578.448,6123.831,5573.658,6124.839Z" transform="translate(-5557.427 -6108.646)" fill="#789e88"/>
          </g>
          <g id="Group_17401" data-name="Group 17401" transform="translate(68.216 98.04)">
            <path id="Path_28208" data-name="Path 28208" d="M5717.869,6141.046c.02.7,0,1.4-.039,2.095-3.646-1.105-7.35-1.086-11.229-1.571-1.474-.193-6.98-.717-10.433-2.113,2.463,4.79,6.089,8.921,8.242,13.924a54.1,54.1,0,0,1,2,5.721c-.582.252-1.183.485-1.785.7a46.032,46.032,0,0,0-2.5-6.788c-2.637-5.449-6.768-9.91-8.979-15.573-2.638-.775-4.48-2.443-6.71-4.053a47.908,47.908,0,0,0-8.4-4.654,27.849,27.849,0,0,1-4.751-2.638,11.791,11.791,0,0,1,.737-1.783c2.579,2.074,6.3,3.2,9.056,4.692,3.414,1.843,6.516,5.2,10.2,6.458.039-.019.077-.059.116-.059,2.56-4.363,5-10.588,8.921-13.788a11.213,11.213,0,0,1,4.615-2.018c.485-.116.95-.232,1.416-.368a12.607,12.607,0,0,1,1.784,1.435c-1.047.33-2.153.621-3.336.951-5.624,1.628-8.766,9.657-11.616,14.583a.742.742,0,0,1,.058.427c-.174,1.958,15.728,3.374,16.989,3.49A26.58,26.58,0,0,1,5717.869,6141.046Z" transform="translate(-5673.285 -6119.229)" fill="#789e88"/>
          </g>
          <g id="Group_17402" data-name="Group 17402" transform="translate(85.417 45.253)">
            <path id="Path_28209" data-name="Path 28209" d="M5740.959,6029.171c-1.28.193-2.54.388-3.8.64a43.95,43.95,0,0,0-10.782,3.55c-1.823.911-3.646,2.947-5.624,3.335a3.844,3.844,0,0,1-1.3.059c-2.87,3.316-6.38,6.05-9.386,9.25-.7.756-1.4,1.532-2.056,2.308a17.686,17.686,0,0,1-1.436-1.3q.524-.64,1.1-1.28c3.278-3.627,7.195-6.632,10.375-10.317a6.1,6.1,0,0,1-.136-1.4c.02-3.045,2.23-7.156,2.929-10.2.523-2.23.95-4.479,1.3-6.749.64,0,1.3.019,1.939.039a99.493,99.493,0,0,1-2,9.794c-.194.756-2.5,7.466-2.308,7.621.834.659,4.79-2.424,5.6-2.831a48.444,48.444,0,0,1,12.9-4.073c.582-.117,1.164-.213,1.726-.31A20.889,20.889,0,0,1,5740.959,6029.171Z" transform="translate(-5706.575 -6017.07)" fill="#789e88"/>
          </g>
          <g id="Group_17403" data-name="Group 17403" transform="translate(19.714 42.092)">
            <path id="Path_28210" data-name="Path 28210" d="M5608.587,6043.552c.154.252.31.523.465.775a1.054,1.054,0,0,1-.213.1c-.466.194-.951.349-1.436.5a17,17,0,0,1-2.54-6.282,25.973,25.973,0,0,0-.563-3.22c-.678-2.347-2.055-2.929-3.626-4.538-.135-.155-.232-.252-.329-.368a38.311,38.311,0,0,0-17.8-2.987,28.371,28.371,0,0,0-3.123.465,14.518,14.518,0,0,1,.427-2.017,35,35,0,0,1,5.721-.465,38.752,38.752,0,0,1,13.711,2.541c.019-.078.039-.136.058-.194-.892-3.433,1.222-5.662,3.723-8.106a50.548,50.548,0,0,0,7.118-8.8,17.868,17.868,0,0,1,2,.523,51.58,51.58,0,0,1-3.181,4.558c-2.481,3.161-9.328,7.7-7.5,12.236a.878.878,0,0,1,.02.543c.854,1.164,2.657,2.114,3.452,3.277a10.614,10.614,0,0,1,1.454,3.938C5606.977,6038.742,5607.112,6041.089,5608.587,6043.552Z" transform="translate(-5579.419 -6010.952)" fill="#789e88"/>
          </g>
          <g id="Group_17404" data-name="Group 17404" transform="translate(17.542 22.97)">
            <path id="Path_28211" data-name="Path 28211" d="M5600.97,5993.184a28.755,28.755,0,0,0-16.853,7.331c-.931.834-2.308-.523-1.377-1.357a31.015,31.015,0,0,1,9.018-5.683,7.346,7.346,0,0,0-1.609-5.546c-.95-1.028-2.269-1.163-3.355-1.746A77.829,77.829,0,0,1,5575.6,5994a11.785,11.785,0,0,1-.388-1.862v-.078a78.717,78.717,0,0,0,10.336-7.331,6.993,6.993,0,0,1,0-4.5,21.939,21.939,0,0,1,2.657-4.5c.369-.582.718-1.164,1.048-1.765a13.569,13.569,0,0,1,2.191.059q-.727,1.366-1.571,2.676c-.485.775-4.538,7.427-2.463,7.408a.819.819,0,0,1,.873.64,11.432,11.432,0,0,1,2.037.775,7.643,7.643,0,0,1,1.861,1.843,9.115,9.115,0,0,1,1.513,5.372,32.257,32.257,0,0,1,7.272-1.494C5602.211,5991.128,5602.211,5993.067,5600.97,5993.184Z" transform="translate(-5575.216 -5973.946)" fill="#789e88"/>
          </g>
          <g id="Group_17405" data-name="Group 17405" transform="translate(55.824 0.804)">
            <path id="Path_28212" data-name="Path 28212" d="M5680.2,5958.993c-.369.155-.756.291-1.144.427-.33.116-.66.213-.989.311a24.86,24.86,0,0,1-1.338-4.4,11.458,11.458,0,0,0-4.771-6.885,27.751,27.751,0,0,0-3.588-1.59,46.592,46.592,0,0,1-.737,13.943q-.96-.088-1.92-.232a44.382,44.382,0,0,0,.679-14.332c-2.386,1.318-4.907,2.89-7.544,3.3-3.219.524-5.934.388-8.708,1.241-.213-.407-.407-.834-.582-1.261-.1-.232-.175-.465-.251-.7a16.01,16.01,0,0,1,4.79-1.105c2.386-.193,4.364.1,6.652-.833,1.765-.737,3.452-1.687,5.159-2.579a.416.416,0,0,1,.058-.1c-1.377-2.521-3.414-3.51-5.934-5.022a6.454,6.454,0,0,1-2.657-2.734,7.847,7.847,0,0,1-.737-2.89c.62-.35,1.26-.679,1.919-.97a5.062,5.062,0,0,0,.1,1.086c.659,3.626,3.316,3.878,5.74,5.6a10.463,10.463,0,0,1,3.219,3.859c3.045-3.491,5.547-6.9,6.924-11.423.058-.213.136-.446.193-.659.621.155,1.242.33,1.843.543a32.989,32.989,0,0,1-1.416,4.169c-1.533,3.471-4.034,6.341-6.516,9.134,1.493.814,3.219,1.183,4.674,2.113a11.392,11.392,0,0,1,2.87,2.754,15.8,15.8,0,0,1,2.288,4.616C5678.935,5955.852,5678.954,5958.082,5680.2,5958.993Z" transform="translate(-5649.303 -5931.048)" fill="#789e88"/>
          </g>
        </g>
        <g id="Group_17414" data-name="Group 17414" transform="translate(15.513 207.207)">
          <g id="Group_17407" data-name="Group 17407" transform="translate(45.573 70.263)">
            <path id="Path_28213" data-name="Path 28213" d="M5661.425,6528.964a1.938,1.938,0,0,1-1.939-1.939V6362.251a1.94,1.94,0,0,1,3.879,0v164.774A1.939,1.939,0,0,1,5661.425,6528.964Z" transform="translate(-5659.486 -6360.312)" fill="#6f5e61"/>
          </g>
          <g id="Group_17408" data-name="Group 17408" transform="translate(1.939)">
            <path id="Rectangle_26818" data-name="Rectangle 26818" d="M.961,0H90.185a.962.962,0,0,1,.962.962v51.2A28.14,28.14,0,0,1,63.006,80.3H28.14A28.14,28.14,0,0,1,0,52.158V.961A.961.961,0,0,1,.961,0Z" fill="#f5d2b5"/>
          </g>
          <g id="Group_17409" data-name="Group 17409" transform="translate(0 41.867)">
            <path id="Path_28214" data-name="Path 28214" d="M5663.467,6503.936h-90.24a1.939,1.939,0,0,1-1.939-1.939V6307.3a1.938,1.938,0,0,1,1.939-1.939h90.24a1.938,1.938,0,0,1,1.939,1.939V6502A1.939,1.939,0,0,1,5663.467,6503.936Zm-88.3-3.879h86.361V6309.235h-86.361Z" transform="translate(-5571.288 -6305.357)" fill="#6f5e61"/>
          </g>
          <g id="Group_17410" data-name="Group 17410" transform="translate(1.939 15.371)">
            <path id="Path_28215" data-name="Path 28215" d="M5597.828,6255.962c0,2.986-5.1,11.225-11.393,11.225s-11.394-8.239-11.394-11.225,5.1-1.528,11.394-1.528S5597.828,6252.977,5597.828,6255.962Z" transform="translate(-5575.041 -6254.079)" fill="#fff"/>
          </g>
          <g id="Group_17411" data-name="Group 17411" transform="translate(24.726 15.371)">
            <path id="Path_28216" data-name="Path 28216" d="M5641.927,6255.962c0,2.986-5.1,11.225-11.394,11.225s-11.393-8.239-11.393-11.225,5.1-1.528,11.393-1.528S5641.927,6252.977,5641.927,6255.962Z" transform="translate(-5619.14 -6254.079)" fill="#fff"/>
          </g>
          <g id="Group_17412" data-name="Group 17412" transform="translate(47.512 15.371)">
            <path id="Path_28217" data-name="Path 28217" d="M5686.025,6255.962c0,2.986-5.1,11.225-11.393,11.225s-11.394-8.239-11.394-11.225,5.1-1.528,11.394-1.528S5686.025,6252.977,5686.025,6255.962Z" transform="translate(-5663.239 -6254.079)" fill="#fff"/>
          </g>
          <g id="Group_17413" data-name="Group 17413" transform="translate(70.299 15.371)">
            <path id="Path_28218" data-name="Path 28218" d="M5730.124,6255.962c0,2.986-5.1,11.225-11.393,11.225s-11.394-8.239-11.394-11.225,5.1-1.528,11.394-1.528S5730.124,6252.977,5730.124,6255.962Z" transform="translate(-5707.338 -6254.079)" fill="#fff"/>
          </g>
        </g>
        <g id="Group_17447" data-name="Group 17447" transform="translate(385.949 141.371)">
          <g id="Group_17418" data-name="Group 17418" transform="translate(0 85.434)">
            <g id="Group_17415" data-name="Group 17415" transform="translate(16.483 5.466)">
              <path id="Path_28219" data-name="Path 28219" d="M6323,6490.229a2.91,2.91,0,0,1-2.633-4.14l98.9-211.57a2.908,2.908,0,1,1,5.269,2.462l-98.9,211.571A2.9,2.9,0,0,1,6323,6490.229Z" transform="translate(-6320.096 -6272.838)" fill="#36303a"/>
            </g>
            <g id="Group_17416" data-name="Group 17416" transform="translate(10.666 5.466)">
              <path id="Path_28220" data-name="Path 28220" d="M6410.652,6490.229a2.9,2.9,0,0,1-2.636-1.678l-98.9-211.571a2.907,2.907,0,1,1,5.268-2.461l98.9,211.57a2.91,2.91,0,0,1-2.632,4.14Z" transform="translate(-6308.836 -6272.836)" fill="#36303a"/>
            </g>
            <g id="Group_17417" data-name="Group 17417">
              <path id="Rectangle_26819" data-name="Rectangle 26819" d="M3.991,0H127.88a3.992,3.992,0,0,1,3.992,3.992v7.7a3.992,3.992,0,0,1-3.992,3.992H3.991A3.991,3.991,0,0,1,0,11.691v-7.7A3.991,3.991,0,0,1,3.991,0Z" fill="#6f5e61"/>
            </g>
          </g>
          <g id="Group_17419" data-name="Group 17419" transform="translate(16.8)">
            <rect id="Rectangle_26820" data-name="Rectangle 26820" width="108.29" height="21.623" rx="6.418" fill="#7b9fba"/>
          </g>
          <g id="Group_17420" data-name="Group 17420" transform="translate(97.94)">
            <rect id="Rectangle_26821" data-name="Rectangle 26821" width="5.973" height="21.623" fill="#fff"/>
          </g>
          <g id="Group_17425" data-name="Group 17425" transform="translate(10.632 21.475)">
            <g id="Group_17421" data-name="Group 17421" transform="translate(89.07)">
              <path id="Rectangle_26822" data-name="Rectangle 26822" d="M0,0H19.689a2.268,2.268,0,0,1,2.268,2.268V14.844a2.268,2.268,0,0,1-2.268,2.268H0a0,0,0,0,1,0,0V0A0,0,0,0,1,0,0Z" fill="#f5d2b5"/>
            </g>
            <g id="Group_17422" data-name="Group 17422" transform="translate(1.351 2.755)">
              <rect id="Rectangle_26823" data-name="Rectangle 26823" width="92.786" height="11.711" fill="#fff"/>
            </g>
            <g id="Group_17423" data-name="Group 17423">
              <rect id="Rectangle_26824" data-name="Rectangle 26824" width="95.432" height="2.755" rx="0.783" fill="#f5d2b5"/>
            </g>
            <g id="Group_17424" data-name="Group 17424" transform="translate(0 14.1)">
              <rect id="Rectangle_26825" data-name="Rectangle 26825" width="95.432" height="3.012" rx="0.856" fill="#f5d2b5"/>
            </g>
          </g>
          <g id="Group_17426" data-name="Group 17426" transform="translate(114.747 24.23)">
            <path id="Path_28221" data-name="Path 28221" d="M6511.667,6143.811h0a1.4,1.4,0,0,1,1.4,1.4v8.544a1.4,1.4,0,0,1-1.4,1.4h0a1.4,1.4,0,0,1-1.4-1.4v-8.544A1.4,1.4,0,0,1,6511.667,6143.811Z" transform="translate(-6510.266 -6143.811)" fill="#fff"/>
          </g>
          <g id="Group_17430" data-name="Group 17430" transform="translate(19.088 51.415)">
            <g id="Group_17427" data-name="Group 17427">
              <path id="Path_28222" data-name="Path 28222" d="M6425.11,6207.59c1.857-.766,1.521-10.394,0-11.05-.729-.315-23.588.1-46.844.146-25.254.048-51.057-.244-51.629.186-1.559,1.172-2.534,9.733.338,10.718,1.471.5,26.792.294,51.291.255C6401.613,6207.808,6424.2,6207.964,6425.11,6207.59Z" transform="translate(-6325.137 -6196.423)" fill="#e66c6c"/>
            </g>
            <g id="Group_17428" data-name="Group 17428" transform="translate(76.509 1.964)">
              <path id="Path_28223" data-name="Path 28223" d="M6477.891,6204.143c0-2.165-1.049-3.919-2.344-3.919s-2.343,1.754-2.343,3.919,1.049,3.918,2.343,3.918S6477.891,6206.307,6477.891,6204.143Z" transform="translate(-6473.204 -6200.223)" fill="#fff"/>
            </g>
            <g id="Group_17429" data-name="Group 17429" transform="translate(69.543 1.964)">
              <path id="Path_28224" data-name="Path 28224" d="M6464.41,6204.143c0-2.165-1.049-3.919-2.343-3.919s-2.343,1.754-2.343,3.919,1.049,3.918,2.343,3.918S6464.41,6206.307,6464.41,6204.143Z" transform="translate(-6459.723 -6200.223)" fill="#fff"/>
            </g>
          </g>
          <g id="Group_17434" data-name="Group 17434" transform="translate(14.151 38.181)">
            <g id="Group_17431" data-name="Group 17431">
              <path id="Path_28225" data-name="Path 28225" d="M6415.322,6171.507c-.257-.312-5.946-.379-14.472-.365-1.865,0-3.852,0-5.96.013-.81,0-1.648,0-2.486.014-1.135,0-2.3,0-3.486.013-7.77.027-16.539.055-25.228.027-23.256-.067-46.105-.7-46.835-.216-1.526,1.013-1.865,12,0,13.174.905.581,23.5.338,46.835.392,8.674.027,17.458.055,25.228.068h5.972c2.108,0,4.108-.013,5.96-.013,8-.055,13.444-.176,14.134-.446C6416.822,6183.438,6416.89,6173.317,6415.322,6171.507Z" transform="translate(-6315.582 -6170.811)" fill="#36303a"/>
            </g>
            <g id="Group_17432" data-name="Group 17432" transform="translate(79.309 0.33)">
              <path id="Path_28226" data-name="Path 28226" d="M6475.028,6184.922V6171.45c-1.865,0-3.852,0-5.959.014v13.472C6471.177,6184.936,6473.177,6184.922,6475.028,6184.922Z" transform="translate(-6469.069 -6171.45)" fill="#fff"/>
            </g>
            <g id="Group_17433" data-name="Group 17433" transform="translate(73.337 0.358)">
              <path id="Path_28227" data-name="Path 28227" d="M6461,6184.961V6171.5c-1.135,0-2.3,0-3.486.013v13.445Z" transform="translate(-6457.511 -6171.503)" fill="#fff"/>
            </g>
          </g>
          <g id="Group_17446" data-name="Group 17446" transform="translate(9.062 62.503)">
            <g id="Group_17439" data-name="Group 17439">
              <g id="Group_17435" data-name="Group 17435" transform="translate(16.892 2.761)">
                <rect id="Rectangle_26826" data-name="Rectangle 26826" width="92.786" height="17.529" transform="translate(92.786 17.529) rotate(180)" fill="#f5d2b5"/>
              </g>
              <g id="Group_17436" data-name="Group 17436" transform="translate(15.597 0.007)">
                <rect id="Rectangle_26827" data-name="Rectangle 26827" width="95.432" height="2.755" rx="0.783" transform="translate(95.432 2.755) rotate(180)" fill="#6c8685"/>
              </g>
              <g id="Group_17437" data-name="Group 17437" transform="translate(15.597 19.924)">
                <rect id="Rectangle_26828" data-name="Rectangle 26828" width="95.432" height="3.012" rx="0.856" transform="translate(95.432 3.012) rotate(-180)" fill="#6c8685"/>
              </g>
              <g id="Group_17438" data-name="Group 17438">
                <path id="Path_28228" data-name="Path 28228" d="M6355.011,6240.823v-22.941H6309.4a3.679,3.679,0,0,0-3.665,3.685v15.572a3.679,3.679,0,0,0,3.665,3.685Z" transform="translate(-6305.734 -6217.882)" fill="#6c8685"/>
              </g>
            </g>
            <g id="Group_17440" data-name="Group 17440" transform="translate(50.213 16.086)">
              <path id="Path_28229" data-name="Path 28229" d="M6460.727,6250.952h-56.846a.969.969,0,1,1,0-1.939h56.846a.969.969,0,0,1,0,1.939Z" transform="translate(-6402.911 -6249.013)" fill="#fff"/>
            </g>
            <g id="Group_17441" data-name="Group 17441" transform="translate(50.213 12.289)">
              <path id="Path_28230" data-name="Path 28230" d="M6460.727,6243.6h-56.846a.97.97,0,0,1,0-1.939h56.846a.97.97,0,0,1,0,1.939Z" transform="translate(-6402.911 -6241.664)" fill="#fff"/>
            </g>
            <g id="Group_17442" data-name="Group 17442" transform="translate(50.213 8.571)">
              <path id="Path_28231" data-name="Path 28231" d="M6460.727,6236.408h-56.846a.969.969,0,1,1,0-1.939h56.846a.969.969,0,0,1,0,1.939Z" transform="translate(-6402.911 -6234.469)" fill="#fff"/>
            </g>
            <g id="Group_17443" data-name="Group 17443" transform="translate(50.213 4.774)">
              <path id="Path_28232" data-name="Path 28232" d="M6460.727,6229.06h-56.846a.97.97,0,0,1,0-1.939h56.846a.97.97,0,0,1,0,1.939Z" transform="translate(-6402.911 -6227.12)" fill="#fff"/>
            </g>
            <g id="Group_17444" data-name="Group 17444" transform="translate(26.588)">
              <rect id="Rectangle_26829" data-name="Rectangle 26829" width="5.314" height="22.942" fill="#fff"/>
            </g>
            <g id="Group_17445" data-name="Group 17445" transform="translate(34.694)">
              <rect id="Rectangle_26830" data-name="Rectangle 26830" width="3.277" height="22.942" fill="#fff"/>
            </g>
          </g>
        </g>
        <g id="Group_17542" data-name="Group 17542" transform="translate(59.968)">
          <g id="Group_17448" data-name="Group 17448" transform="translate(107.101 340.823)">
            <path id="Path_28233" data-name="Path 28233" d="M6041.973,6540.95c-.665-10.624,1.35-38.331.18-48.87-.648-5.842-8.277.631-12.8.543-8.182-.16-13.34,7.606-21.538,7.44-8.618-.175-17.231-.7-25.834-1.419-37.349-3.146-74.537-10.027-112.011-9.76q-.092-2.329-.184-4.659c-.069-1.738-2.043-1.75-1.974,0,.444,11.249-3.622,24.827-3.177,36.076.39,9.85,4.955,17.583,6.36,27.291,2.476,17.1,10.833,29.35,22.419,35.925,13.735,7.8,29.292,6.739,43.854,7.1,16.7.411,33.462,1.382,50.155.266,13.236-.886,28.073-2.322,40.2-10.356C6039.4,6572.709,6043.05,6558.163,6041.973,6540.95Z" transform="translate(-5864.596 -6482.918)" fill="#36303a"/>
          </g>
          <g id="Group_17449" data-name="Group 17449" transform="translate(145.918 98.659)">
            <path id="Path_28234" data-name="Path 28234" d="M5939.719,6041.269c.646-1.647,2.586-2.632,1.293-9.412s-.646-9.625,7.434-14.343,44.65-2.717,60.949-3.232,32.137,7.464,40.541,13.493,5.817,21.221,3.878,23.807S5939.719,6041.269,5939.719,6041.269Z" transform="translate(-5939.719 -6014.257)" fill="#e66c6c"/>
          </g>
          <g id="Group_17450" data-name="Group 17450" transform="translate(107.101 103.938)">
            <path id="Path_28235" data-name="Path 28235" d="M6027.624,6051.9a268.74,268.74,0,0,0-82.128-27.412.975.975,0,0,0-.833.249.939.939,0,0,0-.974.657q-.243.727-.485,1.455a.941.941,0,0,0-.036.3c-18.3,10.677-41.682,12.245-58.4,25.731-2.628,2.121-4.386,4.4-4.669,7.863a25.285,25.285,0,0,0,.872,6.717,21.8,21.8,0,0,1-.679,12.231c-1.672,4.795-3.877,9.233-4.526,14.333a51.627,51.627,0,0,0,.951,16.082c1.018,5.382,2.479,10.668,3.579,16.032,1.415,6.9-4.081,13.779-3.991,20.8.069,5.451-3.733,10.9-2.936,16.3.975,6.6-2.994,13.068-2.459,19.735.982,12.241-4.742,38.264-6.205,50.375-.669,5.535,1.981,20.278.591,25.713-1.64,6.412,2.182,8.61,5.224,10.973,10.018,7.78,35.007,7.918,47.391,10.293,6.576,1.261,12.817,4.395,19.46,5.163,10.184,1.178,20.281-2.864,30.429-3.479,10.64-.646,21.364-.025,31.923-1.753,11.088-1.814,35.418-3.292,44.307-10.9,3.282-2.811,2.156-6.348,3.379-10.545,1.809-6.2.33-12.809,2.119-18.968,1.811-6.232,1.282-11.225,1.213-18.043-.06-5.842.467-25.066-.3-30.9-.58-4.427-.679-8.992-1.006-13.446-.656-8.944,1.633-18.854,3.1-27.781,2.08-12.624-6.807-24.886-8.144-37.521a151.252,151.252,0,0,1-1.147-19.3c.158-6.963,2.4-13.378,2.989-20.211C6047.237,6061.149,6036.265,6056.456,6027.624,6051.9Z" transform="translate(-5864.597 -6024.474)" fill="#e66c6c"/>
          </g>
          <g id="Group_17451" data-name="Group 17451" transform="translate(166.164 114.798)">
            <path id="Path_28236" data-name="Path 28236" d="M6055.1,6067.516c-.659,1.571-1.241,2.929-1.59,3.7-.116.292-.213.485-.252.6-1.474,3.277-3.045,6.5-4.6,9.735-.659,1.376-1.318,2.773-1.959,4.169a3.866,3.866,0,0,0-.193.388,119.583,119.583,0,0,0-5.275,13.672c-.311.969-.621,1.939-.912,2.928-.446,1.4-.873,2.812-1.3,4.248-.97,3.258-1.92,6.554-2.928,9.851-1.067,3.51-2.25,6.981-3.123,10.531a41.115,41.115,0,0,0-.854,4.344c-.039.193-.077.407-.1.6-.659,4.984-1.609,10.22-2.676,15.417-.252,1.222-.524,2.443-.8,3.666-1.784,8.145-3.84,15.94-5.6,22.088-.426,1.435-.834,2.792-1.2,4.034-1.086,3.607-2,6.342-2.541,7.8-2.153,5.817-5.431,18.753-5.431,18.753s-1.551-11.888-4.673-26.006c-.31-1.377-.64-2.792-.969-4.228a197.222,197.222,0,0,0-5.565-19.374c-.389-1.086-.8-2.172-1.2-3.219a66.585,66.585,0,0,0-5.2-10.841,72.937,72.937,0,0,1-6.981-15.554q-.756-2.326-1.4-4.653c-1.2-4.325-2.172-8.746-2.967-13.09-.252-1.3-.466-2.6-.679-3.879-1.28-7.621-2.152-14.894-3.064-20.963-.252-1.726-.524-3.355-.8-4.868-.039-.174-.058-.369-.1-.543a74.471,74.471,0,0,1-1.221-10.472c-.059-1.4-.078-2.676-.039-3.878a39.217,39.217,0,0,1,1.26-10.336s11.326-7.815,37.021-6.5c16.813.873,32.425,7.233,41.327,11.83C6059.071,6057.761,6056.84,6063.385,6055.1,6067.516Z" transform="translate(-5978.899 -6045.491)" fill="#fff"/>
          </g>
          <g id="Group_17452" data-name="Group 17452" transform="translate(167.541 146.674)">
            <path id="Path_28237" data-name="Path 28237" d="M6049.945,6111.371c-.659,1.376-1.319,2.773-1.959,4.169a42.427,42.427,0,0,0-9.23,1.881,39.492,39.492,0,0,1-20.208,1.416c-4.732-.834-9.348-2.269-14.021-3.394-5.935-1.416-11.83-1.318-17.784-2.269a23.829,23.829,0,0,1-4.382-1.125c-.252-1.726-.524-3.355-.8-4.868,5.856,2.521,12.412,2.21,19.3,3.471,8.145,1.493,16.038,4.829,24.376,5.14,7.331.291,13.3-3.2,20.344-4.073C6047.017,6111.546,6048.49,6111.429,6049.945,6111.371Z" transform="translate(-5981.565 -6107.182)" fill="#f8f0ec"/>
          </g>
          <g id="Group_17453" data-name="Group 17453" transform="translate(171.401 172.021)">
            <path id="Path_28238" data-name="Path 28238" d="M6045.216,6156.234c-.446,1.4-.873,2.813-1.3,4.248a104.109,104.109,0,0,1-16.659.658q-18.762-.552-37.544-.542c-.253-1.3-.466-2.6-.679-3.879,10.3,0,20.575.1,30.854.35C6028.791,6157.282,6037.11,6157.437,6045.216,6156.234Z" transform="translate(-5989.035 -6156.234)" fill="#f8f0ec"/>
          </g>
          <g id="Group_17454" data-name="Group 17454" transform="translate(175.046 188.92)">
            <path id="Path_28239" data-name="Path 28239" d="M6041.276,6196.67a40.982,40.982,0,0,0-.854,4.344,65.284,65.284,0,0,1-14.545-3.239c-4.849-1.765-8.843-4.635-14.156-4.673-4.731-.039-9.5.62-14.234,1.046q-.757-2.327-1.4-4.654c8.8-.7,17.512-1.357,25.579,2.152A69.324,69.324,0,0,0,6041.276,6196.67Z" transform="translate(-5996.091 -6188.939)" fill="#f8f0ec"/>
          </g>
          <g id="Group_17455" data-name="Group 17455" transform="translate(188.622 216.437)">
            <path id="Path_28240" data-name="Path 28240" d="M6050.347,6242.769c-.252,1.222-.524,2.443-.8,3.666a60.842,60.842,0,0,0-14.176.058,72.215,72.215,0,0,0-11.81,3.006c-.389-1.086-.8-2.172-1.2-3.219,5.624-1.648,11.267-3.937,17.4-4.072A83.891,83.891,0,0,1,6050.347,6242.769Z" transform="translate(-6022.363 -6242.193)" fill="#f8f0ec"/>
          </g>
          <g id="Group_17456" data-name="Group 17456" transform="translate(195.39 242.766)">
            <path id="Path_28241" data-name="Path 28241" d="M6050.276,6293.149c-.426,1.435-.834,2.792-1.2,4.034-1.164.02-2.327.1-3.51.193a85.14,85.14,0,0,1-9.134.35c-.31-1.377-.64-2.792-.969-4.228a126.354,126.354,0,0,0,13.187-.271C6049.191,6293.188,6049.734,6293.149,6050.276,6293.149Z" transform="translate(-6035.461 -6293.149)" fill="#f8f0ec"/>
          </g>
          <g id="Group_17457" data-name="Group 17457" transform="translate(166.164 131.155)">
            <path id="Path_28242" data-name="Path 28242" d="M6055.1,6082.815c-.659,1.571-1.241,2.928-1.59,3.7-1.667-.291-3.355-.62-5.062-.911-9.968-1.745-18.365-.252-28.255-.039-7.021.135-13.13-2.5-19.917-3.7a74.075,74.075,0,0,0-21.313-.213c-.059-1.4-.078-2.676-.039-3.879a92.718,92.718,0,0,1,13.11-.582c8.184.271,15.591,3.278,23.621,4.208,9.076,1.066,18.035-1.726,27.208-.621C6047.009,6081.283,6051.043,6082.1,6055.1,6082.815Z" transform="translate(-5978.899 -6077.147)" fill="#f8f0ec"/>
          </g>
          <g id="Group_17484" data-name="Group 17484" transform="translate(151.413)">
            <g id="Group_17458" data-name="Group 17458" transform="translate(22.382)">
              <path id="Path_28243" data-name="Path 28243" d="M6060.77,5845.229c-1.058-3.487-3.849-6.007-5.348-9.289-1.141-2.5-2.1-4.41-4.616-5.722a38.613,38.613,0,0,0-3.985-1.415c-2.4-.933-3.867-2.747-6.023-3.954a11.906,11.906,0,0,0-7.841-1.373c-4.687.692-7.382,3.937-12.216,2.122a15.85,15.85,0,0,0-8.093-.977c-7.953,1.118-13.637,7.239-18.722,12.907-.831.927.536,2.3,1.372,1.371.968-1.08,1.957-2.179,2.977-3.256,3.335,5.973,10.9,5.125,16.981,5.653,5.523.479,10.869,1.354,15.837,3.949,4.325,2.258,7.366,5.591,10.816,8.912,3.03,2.916,16.071,23.363,20.362,19.5C6066.008,5870.284,6062.149,5849.775,6060.77,5845.229Z" transform="translate(-5993.668 -5823.323)" fill="#36303a"/>
            </g>
            <g id="Group_17459" data-name="Group 17459" transform="translate(28.848 9.308)">
              <path id="Path_28244" data-name="Path 28244" d="M6064.118,5857.148c-12.537-20.036-42.2-18.182-57.856-10.02-1.106.577,9.735,3.02,10.842,2.443.667-.348,1.348-.662,2.032-.971-1.127,1.342-1.974,3-3.185,4.329a24.179,24.179,0,0,0-5.544,9.537c-2.644,8.726-2.053,18.718-.991,27.648,1.77,14.892,7.514,37.372,23.248,43.563,6.81,2.68,14.6,1.491,19.27-4.415,2.3-2.9,3.65-6.39,5.122-9.746,2.044-4.663,1.162-6.153,3.617-10.591a78.741,78.741,0,0,0,8.617-29.638C6069.78,5871.13,6068.675,5864.432,6064.118,5857.148Z" transform="translate(-6006.183 -5841.336)" fill="#36303a"/>
            </g>
            <g id="Group_17460" data-name="Group 17460" transform="translate(30.834 100.815)">
              <path id="Path_28245" data-name="Path 28245" d="M6019.161,6058.591c3.211,3.238,10.336,6.328,14.992,5.173,2.252-.559,5.653-3.819,7.431-5.243a31.143,31.143,0,0,0,9.259-12.834c.092-3.521.075-3.841,0-8-.039-3.259-.136-6.5-.213-9.367-.175-5.682-.369-9.891-.369-9.891l-40.24,5.818v21.239C6011.849,6050.52,6015.05,6054.444,6019.161,6058.591Z" transform="translate(-6010.025 -6018.431)" fill="#ffaa9c"/>
            </g>
            <g id="Group_17461" data-name="Group 17461" transform="translate(30.834 106.847)">
              <path id="Path_28246" data-name="Path 28246" d="M6031.092,6048.839a9.8,9.8,0,0,0,2.242-.014,20.476,20.476,0,0,0,7.221-2.329,18,18,0,0,0,7.21-7c.95-1.8,1.556-3.739,2.4-5.585-.169-.018-.343-.03-.5-.051a132.206,132.206,0,0,0-21.08-1.145,58.751,58.751,0,0,1-10.453-.077c-2.772-.368-5.41-2.23-8.106-2.541v17.726a5.264,5.264,0,0,0,1.183.621c2.443.931,5.236.252,7.737.039a63.059,63.059,0,0,1,7.211-.275C6027.72,6048.259,6029.422,6048.684,6031.092,6048.839Z" transform="translate(-6010.026 -6030.103)" fill="#f07d67"/>
            </g>
            <g id="Group_17462" data-name="Group 17462" transform="translate(18.348 21.268)">
              <path id="Path_28247" data-name="Path 28247" d="M6038.338,5868.544c-3.938-2.691-8.882-1.34-13.559-2.454-6.412-1.528-13.178-2.339-19.568-.72-11.153,2.825-19.691,10.048-19.338,25.511.483,21.119.616,44.9,9.585,57.5,5.251,7.381,11.789,15.32,21.124,16.416,23.55,2.762,32.994-28.793,34.389-47.2.789-10.423,3.64-27.365.485-37.331-1.641-5.185-6.578-6.085-10.6-9.741A23.231,23.231,0,0,0,6038.338,5868.544Z" transform="translate(-5985.862 -5864.483)" fill="#ffaa9c"/>
            </g>
            <g id="Group_17463" data-name="Group 17463" transform="translate(32.488 71.51)">
              <path id="Path_28248" data-name="Path 28248" d="M6017.056,5963.188c-.47-1.122-1.269-1.918-2.615-1.194a1.86,1.86,0,0,0-.789.967c-.8,1.832-.646,6.878,2,6.93,2.075.041,2.16-2.687,2-4.156A9.75,9.75,0,0,0,6017.056,5963.188Z" transform="translate(-6013.228 -5961.717)" fill="#36303a"/>
            </g>
            <g id="Group_17464" data-name="Group 17464" transform="translate(64.181 71.512)">
              <path id="Path_28249" data-name="Path 28249" d="M6075.073,5963.271c.43-1.136,1.2-1.966,2.534-1.334a1.856,1.856,0,0,1,.836.926c.892,1.788,1,6.836-1.643,7.023-2.044.146-2.309-2.554-2.225-4.019A9.327,9.327,0,0,1,6075.073,5963.271Z" transform="translate(-6074.563 -5961.719)" fill="#36303a"/>
            </g>
            <g id="Group_17465" data-name="Group 17465" transform="translate(77.351 67.902)">
              <path id="Path_28250" data-name="Path 28250" d="M6104.1,5955.57s2.3-2.719,6.3,1.644-.122,16.969-4.484,19.757-6.182,1.576-5.818,1.091S6104.1,5955.57,6104.1,5955.57Z" transform="translate(-6100.05 -5954.733)" fill="#ffaa9c"/>
            </g>
            <g id="Group_17466" data-name="Group 17466" transform="translate(12.055 67.902)">
              <path id="Path_28251" data-name="Path 28251" d="M5981.608,5955.57s-2.3-2.719-6.3,1.644.121,16.969,4.484,19.757,8.121,1.576,7.758,1.091S5981.608,5955.57,5981.608,5955.57Z" transform="translate(-5973.682 -5954.733)" fill="#ffaa9c"/>
            </g>
            <g id="Group_17467" data-name="Group 17467" transform="translate(45.323 76.897)">
              <path id="Path_28252" data-name="Path 28252" d="M6044.939,5991.98a4.8,4.8,0,0,1-4.912-2.116l.292-1.981c.262-1.7.549-3.389.822-5.083q.764-4.72,1.526-9.44c.2-1.221-1.671-1.747-1.87-.516q-.762,4.72-1.527,9.44c-.378,2.34-1.36,5.186-1.184,7.58.244,3.3,4.118,4.154,6.852,4.055C6046.184,5993.874,6046.189,5991.935,6044.939,5991.98Z" transform="translate(-6038.067 -5972.142)" fill="#f07d67"/>
            </g>
            <g id="Group_17468" data-name="Group 17468" transform="translate(40.922 101.916)">
              <path id="Path_28253" data-name="Path 28253" d="M6048.522,6020.7c-1.132.377-3.427.817-3.849.909a22.769,22.769,0,0,1-7.666.061c-1.6-.161-1.923-.27-6.727-.818-.724-.083-.98.614-.453,1.25,4.685,5.658,15.449,6.782,19.464-.349C6049.844,6020.773,6049.7,6020.306,6048.522,6020.7Z" transform="translate(-6029.549 -6020.56)" fill="#f07d67"/>
            </g>
            <g id="Group_17469" data-name="Group 17469" transform="translate(25.616 62.509)">
              <path id="Path_28254" data-name="Path 28254" d="M6018.878,5947.435c-.149-1.2-2.494-2.32-3.362-2.564-3.141-.882-6.564-.583-9.754-.177-1.675.213-6.045.776-5.828,3.213a1.027,1.027,0,0,0,.711.935,18.439,18.439,0,0,0,6.491.86c2.2.06,4.4,0,6.6-.059,1.616-.042,3.441-.084,4.712-1.239A1.1,1.1,0,0,0,6018.878,5947.435Z" transform="translate(-5999.927 -5944.297)" fill="#36303a"/>
            </g>
            <g id="Group_17470" data-name="Group 17470" transform="translate(58.392 63.007)">
              <path id="Path_28255" data-name="Path 28255" d="M6063.794,5949.366c1.271,1.155,3.1,1.2,4.712,1.239,2.2.057,4.4.119,6.6.059a18.443,18.443,0,0,0,6.491-.86,1.027,1.027,0,0,0,.711-.935c.218-2.438-4.152-3-5.827-3.213-3.19-.406-6.614-.705-9.754.177-.869.244-3.213,1.366-3.362,2.564A1.1,1.1,0,0,0,6063.794,5949.366Z" transform="translate(-6063.358 -5945.261)" fill="#36303a"/>
            </g>
            <g id="Group_17471" data-name="Group 17471" transform="translate(14.854 17.42)">
              <path id="Path_28256" data-name="Path 28256" d="M6052.624,5875.816c-4.543-11.109-19.356-16.35-30.227-18.066a57.734,57.734,0,0,0-18.017-.016c-5.022.8-11.939,1.955-15.6,5.9-3.965,4.277-5.146,12.254-6.212,17.706a93.672,93.672,0,0,0-1.613,20.815,3.167,3.167,0,0,0-.234-.339c-.819-.943-2.186.433-1.371,1.372,1.233,1.42,3.279,10.133,6.925,7.026,1.9-1.617,1.918-5.609,2.217-7.861.713-5.363,1.552-8.957,6.68-11.727,2.874-1.552,6.3-1.962,9.088-3.623,2.629-1.568,3.248-3.843,4.324-6.567.677-1.712,1.09-3.67,2.713-4.846,2.077-1.5,5.039-1.545,7.493-1.708a23.794,23.794,0,0,1,9.207.992,20.936,20.936,0,0,1,11.265,9.567c4.152,7.361,9.044,23.141,9.044,23.141s4.011-9.167,4.754-14.426C6053.871,5887.412,6054.9,5881.375,6052.624,5875.816Z" transform="translate(-5979.1 -5857.035)" fill="#36303a"/>
            </g>
            <g id="Group_17472" data-name="Group 17472" transform="translate(0 8.827)">
              <path id="Path_28257" data-name="Path 28257" d="M6002.6,5843.068a45.175,45.175,0,0,0-10.495-.2c-5.433.316-10.146-1.888-15.441-2.4a16.4,16.4,0,0,0-14.283,6.6,15.823,15.823,0,0,0-1.509,3.022c-1.352,2.863-2.862,3.886-5.122,5.707a13.763,13.763,0,0,0-4.712,6.308,13.01,13.01,0,0,0-.188,7.727c.846,3,2.384,4.658,1.532,8.135-.391,1.6-1.267,2.935-1.519,4.613a7.9,7.9,0,0,0,1.569,6.347c1.468,2.179,3.065,2.864,2.483,6-.48,2.581-1.154,4.491-.585,7.206,1.285,6.118,8.119,12.428,14.307,7.794a11.987,11.987,0,0,0,3.856-5.535c1.352-3.664,1.426-7.474,1.916-11.293.458-3.568,1.046-7.123,1.828-10.634,1.439-6.464,3.423-13.607,7.84-18.731a16.629,16.629,0,0,1,1.168-1.229c7.819-7.4,18.41-8.043,27.769-12.434a4.225,4.225,0,0,1,.494,2.126,1.057,1.057,0,0,0,2.113,0C6015.8,5846.023,6007.42,5843.9,6002.6,5843.068Z" transform="translate(-5950.353 -5840.405)" fill="#36303a"/>
            </g>
            <g id="Group_17473" data-name="Group 17473" transform="translate(39.956 12.334)">
              <path id="Path_28258" data-name="Path 28258" d="M6038.142,5856.489c-1.777-1.8-2.124-4.376-3.9-6.161a15.507,15.507,0,0,0-5.4-3.062c-1.156-.468-1.659,1.407-.515,1.87,2.524,1.023,4.417,2.058,5.792,4.491a19.984,19.984,0,0,0,2.005,3.551c2.325,2.7,6.784,4.084,7.1,8.126.1,1.236,2.037,1.247,1.939,0C6044.806,5860.749,6041,5859.393,6038.142,5856.489Z" transform="translate(-6027.679 -5847.191)" fill="#1a161c"/>
            </g>
            <g id="Group_17474" data-name="Group 17474" transform="translate(16.679 25.876)">
              <path id="Path_28259" data-name="Path 28259" d="M6013.187,5873.438a16.054,16.054,0,0,0-8.94,5.781c-1.588,2.125-2.117,4.545-3.314,6.849-1.538,2.959-4.027,4.441-6.905,5.879-3.241,1.619-6.644,3.037-8.786,6.1-2.575,3.686-2.624,8.387-2.606,12.71a.97.97,0,0,0,1.939,0c-.023-5.508.245-11.07,5.274-14.448,2.677-1.8,5.837-2.737,8.508-4.552a13.284,13.284,0,0,0,4.867-6.167c2.3-5.162,4.68-8.713,10.48-10.287A.97.97,0,0,0,6013.187,5873.438Z" transform="translate(-5982.632 -5873.4)" fill="#1a161c"/>
            </g>
            <g id="Group_17475" data-name="Group 17475" transform="translate(9.227 39.657)">
              <path id="Path_28260" data-name="Path 28260" d="M5984.441,5900.089a20.461,20.461,0,0,0-16.2,15.088.97.97,0,0,0,1.87.516,18.571,18.571,0,0,1,14.844-13.733C5986.184,5901.741,5985.664,5899.872,5984.441,5900.089Z" transform="translate(-5968.209 -5900.071)" fill="#1a161c"/>
            </g>
            <g id="Group_17482" data-name="Group 17482" transform="translate(19.142 71.674)">
              <g id="Group_17477" data-name="Group 17477">
                <g id="Group_17476" data-name="Group 17476">
                  <path id="Path_28261" data-name="Path 28261" d="M6002.575,5981.386c-4.14.009-9.853.389-12.481-4.607a24.647,24.647,0,0,1-2.083-7.136,28.193,28.193,0,0,1-.606-5.383c.056-1.8,11.115-2.273,12.91-2.223,6.844.2,14,1.771,15.047,2.925l.237.259.047.5c0,.262-.018,7.763-4.556,12.332A11.589,11.589,0,0,1,6002.575,5981.386Zm-13.5-16.5a40,40,0,0,0,.756,6.667,17.462,17.462,0,0,0,1.656,4.438,7.046,7.046,0,0,0,4.574,3.217,31.354,31.354,0,0,0,6.538.524c10.463-.042,11.319-11.622,11.39-13.749-1.248-.678-7.114-2.1-13.722-2.292A40.747,40.747,0,0,0,5989.075,5964.886Zm24.918.782a.258.258,0,0,0,0,.062C6013.993,5965.7,6013.993,5965.682,6013.993,5965.668Z" transform="translate(-5987.399 -5962.034)" fill="#36303a"/>
                </g>
              </g>
              <g id="Group_17479" data-name="Group 17479" transform="translate(34.408 0.264)">
                <g id="Group_17478" data-name="Group 17478">
                  <path id="Path_28262" data-name="Path 28262" d="M6069.012,5981.055c-1.093,0-2.088-.035-2.9-.069a11.465,11.465,0,0,1-8.329-3.6c-4.075-4.44-3.805-11.426-3.79-11.722l.013-.305.275-.36c1.154-1.229,9.4-2.347,15.448-2.453,4.568-.055,10.12.7,10.737,1.359l.251.266-.063.972c-.243,3.7-.543,8.295-2.485,11.688C6076.127,5980.406,6072.925,5981.039,6069.012,5981.055Zm-13.371-15c-.007,1.491.2,6.765,3.365,10.212a9.877,9.877,0,0,0,7.178,3.067c3.364.131,8.435.379,10.556-3.326,1.739-3.043,2.034-7.4,2.265-10.914a38.062,38.062,0,0,0-9.241-.9C6063.221,5964.314,6056.977,5965.429,6055.641,5966.056Zm.008-.39c0,.018,0,.055,0,.107A.557.557,0,0,0,6055.649,5965.666Z" transform="translate(-6053.988 -5962.543)" fill="#36303a"/>
                </g>
              </g>
              <g id="Group_17481" data-name="Group 17481" transform="translate(27.409 2.955)">
                <g id="Group_17480" data-name="Group 17480">
                  <rect id="Rectangle_26831" data-name="Rectangle 26831" width="7.306" height="1.654" transform="translate(0 0.074) rotate(-0.578)" fill="#36303a"/>
                </g>
              </g>
            </g>
            <g id="Group_17483" data-name="Group 17483" transform="translate(78.11 63.567)">
              <rect id="Rectangle_26832" data-name="Rectangle 26832" width="12.567" height="1.94" transform="translate(0 9.791) rotate(-51.179)" fill="#36303a"/>
            </g>
          </g>
          <g id="Group_17485" data-name="Group 17485" transform="translate(69.064 132.135)">
            <path id="Path_28263" data-name="Path 28263" d="M5798.284,6239.858c8.731,9.036,33.068,11.622,44.052,8.278,13.095-3.985,20.338-25.252,25.527-37.957.648-1.587,1.247-3.189,1.829-4.8a227.7,227.7,0,0,0,.235-32.213c-1.029-17.478-3.573-34.819-6.128-52.125-1.252-8.488-2.177-17.112-3.882-25.522-1.246-6.15-3.38-11.983-8.207-16.208a.931.931,0,0,0-.9-.2.918.918,0,0,0-.993.184c-10.463,9.563-21.1,19.3-28.7,31.4-3.649,5.811-8.525,12.141-10.187,18.814-1.6,6.438-5.467,13-5.826,19.583-.458,8.411-2.623,19.339-7.413,26.213a28.094,28.094,0,0,0-5.4,16.021C5791.954,6205.725,5787.175,6228.361,5798.284,6239.858Z" transform="translate(-5790.983 -6079.043)" fill="#e66c6c"/>
          </g>
          <g id="Group_17486" data-name="Group 17486" transform="translate(261.314 139.857)">
            <path id="Path_28264" data-name="Path 28264" d="M6227.5,6211.592c-1.917-5.7-4.722-11.338-5.888-17.225-1.421-7.175-1.708-14.472-2.732-21.689a58.566,58.566,0,0,0-5.319-18.37c-3.469-6.9-7.372-13.277-9.384-20.667-3.533-12.976-6.18-29.257-18.3-39.371-2.657-2.217-5.137,9.31-5.327,10.065-1.211,4.824,4.007,7.614,2.784,12.437-2.445,9.646-4.889,19.294-7.234,28.965-3.113,12.839-6.053,25.722-8.585,38.689-4.763,24.375-8.377,51.575,3.656,74.9,1.962,3.8,4.546,7.317,9.147,9.017,6.132,2.265,15.386,6.512,21.827,6,11.468-.906,26.805-7.619,29.413-18.1,1.74-7,.982-15.844.383-22.968a94.118,94.118,0,0,0-4.205-20.979C6227.659,6212.063,6227.581,6211.828,6227.5,6211.592Z" transform="translate(-6163.044 -6093.987)" fill="#e66c6c"/>
          </g>
          <g id="Group_17492" data-name="Group 17492" transform="translate(79.474 408.277)">
            <g id="Group_17487" data-name="Group 17487">
              <path id="Path_28265" data-name="Path 28265" d="M5811.13,6633.288l66.678-19.826L5916.345,6630l10.026,4.313,23.413,10.048-15.3,14.8s-6.764-1.537-16.387-3.7c-.534-.1-1.074-.23-1.629-.329-16.8-3.776-41.156-9.089-54.195-11.475C5846.889,6640.842,5811.13,6633.288,5811.13,6633.288Z" transform="translate(-5811.13 -6613.462)" fill="#f07d67"/>
            </g>
            <g id="Group_17488" data-name="Group 17488" transform="translate(121.271 26.868)">
              <path id="Path_28266" data-name="Path 28266" d="M6054.414,6665.715c3.04-2.1,31.61,9.391,37.426,10.257a2.029,2.029,0,0,0,.277.057,50.466,50.466,0,0,1,17.653,6.126c13.552,8.106,13.1,12.089,11.565,20.155-1.255,6.528-7.73,8.8-17.467,7.52a58.245,58.245,0,0,1-7.515-1.517c-13.885-3.618-50.254-24.437-50.254-24.437s-1.164-.889,1.312-6.8C6049.873,6671.14,6051.4,6667.816,6054.414,6665.715Z" transform="translate(-6045.826 -6665.458)" fill="#6f5e61"/>
            </g>
            <g id="Group_17489" data-name="Group 17489" transform="translate(167.562 37.438)">
              <path id="Path_28267" data-name="Path 28267" d="M6135.413,6685.915a50.463,50.463,0,0,1,17.653,6.127c13.552,8.105,15.579,12.8,13.157,20.708-1.946,6.355-9.323,8.25-19.06,6.967,4.6-1.373,9.921-3.893,12.464-8.443,4.981-8.9-7.147-16.229-12.7-20.17A36.708,36.708,0,0,0,6135.413,6685.915Z" transform="translate(-6135.413 -6685.915)" fill="#fff"/>
            </g>
            <g id="Group_17490" data-name="Group 17490" transform="translate(136.777 31.534)">
              <path id="Path_28268" data-name="Path 28268" d="M6076.412,6676.5a167.221,167.221,0,0,0,17.015,6.673c1.326.438,1.842-1.671.52-2.108a161.753,161.753,0,0,1-16.491-6.468C6076.193,6674.021,6075.136,6675.918,6076.412,6676.5Z" transform="translate(-6075.834 -6674.489)" fill="#f8f0ec"/>
            </g>
            <g id="Group_17491" data-name="Group 17491" transform="translate(129.827 45.326)">
              <path id="Path_28269" data-name="Path 28269" d="M6062.887,6703.268a75.91,75.91,0,0,0,17.2,8.628c1.315.466,1.83-1.645.52-2.107a73.676,73.676,0,0,1-16.676-8.424C6062.774,6700.585,6061.733,6702.491,6062.887,6703.268Z" transform="translate(-6062.385 -6701.181)" fill="#fff"/>
            </g>
          </g>
          <g id="Group_17493" data-name="Group 17493" transform="translate(0 336.779)">
            <path id="Path_28270" data-name="Path 28270" d="M5830.806,6592.111c6.89-12.627,9.922-28.144,10.636-41.746a60.736,60.736,0,0,0-6.286-10.125A38.453,38.453,0,0,0,5822.8,6529.5a61.758,61.758,0,0,0-8.336-3.565c-1.11-.4-2.229-.77-3.347-1.144s-2.235-.733-3.354-1.1q-4.4-.431-2.424-5.147c1.154.793,2.24-1.087,1.1-1.874a4.321,4.321,0,0,0-.447-.252c-.2-2.822,13.417-7.8,13.417-7.8l-12.769-5.14s-14.632-6.1-39.292-15.1c-12.366-4.513-66.614-14.823-80.07-13.1-9.523,1.218-18.087,6.3-22.553,14.757-4.955,5.679-8.126,12.775-7.249,20.558.625,5.536,3.133,10.642,5.545,15.583a119.849,119.849,0,0,0,8.281,15.034,42.373,42.373,0,0,0,23.52,17.421c5.7,1.669,11.022,2.514,16.23,5.641a53.028,53.028,0,0,0,16.294,6.732c5.3,1.187,10.719,1.837,15.971,3.255,6.074,1.64,11.442,4.85,17.737,5.714,6.835.939,13.437,1.545,20.144,3.3a120.137,120.137,0,0,0,17.626,3.69c6.051.647,9.78,5.1,16.13,5.259C5820.068,6592.356,5825.563,6592.455,5830.806,6592.111Z" transform="translate(-5657.323 -6475.091)" fill="#36303a"/>
          </g>
          <g id="Group_17499" data-name="Group 17499" transform="translate(110.679 386.559)">
            <g id="Group_17494" data-name="Group 17494" transform="translate(67.115)">
              <path id="Path_28271" data-name="Path 28271" d="M6108.594,6571.431l-34.027,60.673-39.167,14.982-10.2,3.891-23.8,9.1.669-21.28s5.924-3.609,14.334-8.761c.457-.3.932-.583,1.4-.9,14.682-8.992,35.858-22.149,46.876-29.521C6077.677,6590.921,6108.594,6571.431,6108.594,6571.431Z" transform="translate(-6001.407 -6571.431)" fill="#ffaa9c"/>
            </g>
            <g id="Group_17495" data-name="Group 17495" transform="translate(1.018 66.403)">
              <path id="Path_28272" data-name="Path 28272" d="M5948.522,6718.764c-.716,3.625-29.22,15.282-34,18.713a2.031,2.031,0,0,0-.238.152,50.459,50.459,0,0,1-16.934,7.9c-15.37,3.626-17.823.457-22.338-6.4-3.647-5.558-.586-11.7,7.294-17.562a58.236,58.236,0,0,1,6.447-4.146c12.483-7.077,53.079-17.476,53.079-17.476s1.454-.174,3.8,5.8C5948,6711.709,5949.217,6715.16,5948.522,6718.764Z" transform="translate(-5873.489 -6699.942)" fill="#6f5e61"/>
            </g>
            <g id="Group_17496" data-name="Group 17496" transform="translate(0 88.026)">
              <path id="Path_28273" data-name="Path 28273" d="M5913.337,6757.853a50.463,50.463,0,0,1-16.934,7.9c-15.369,3.626-20.095,1.669-23.865-5.691-3.032-5.916.941-12.414,8.821-18.275-2.344,4.19-4.407,9.7-3.061,14.74,2.626,9.855,16.434,6.665,23.163,5.622A36.685,36.685,0,0,0,5913.337,6757.853Z" transform="translate(-5871.52 -6741.788)" fill="#fff"/>
            </g>
            <g id="Group_17497" data-name="Group 17497" transform="translate(48.789 85.771)">
              <path id="Path_28274" data-name="Path 28274" d="M5983.354,6737.493a167.3,167.3,0,0,0-16.856,7.066c-1.257.609-.158,2.482,1.1,1.875a162.184,162.184,0,0,1,16.337-6.848C5985.237,6739.121,5984.673,6737.022,5983.354,6737.493Z" transform="translate(-5965.942 -6737.425)" fill="#fff"/>
            </g>
            <g id="Group_17498" data-name="Group 17498" transform="translate(42.667 70.977)">
              <path id="Path_28275" data-name="Path 28275" d="M5973.006,6708.813a75.9,75.9,0,0,0-18.35,5.791c-1.268.583-.167,2.455,1.1,1.875a73.659,73.659,0,0,1,17.832-5.572C5974.957,6710.659,5974.375,6708.567,5973.006,6708.813Z" transform="translate(-5954.094 -6708.793)" fill="#fff"/>
            </g>
          </g>
          <g id="Group_17500" data-name="Group 17500" transform="translate(193.02 326.939)">
            <path id="Path_28276" data-name="Path 28276" d="M6239.031,6490.013a118.744,118.744,0,0,0-5.428-18.09c-1.916-5.179-8.25-8.887-12.771-12.028-12.285-8.535-30.073-1.014-42.326,4.709a44.838,44.838,0,0,1-15.256,4.358c-3.435.321-6.673.635-9.874,2.037-6.657,2.915-54.207,16.788-54.207,16.788s7.538,11.813-4.811,23.625a.939.939,0,0,0-.3.9c-8.663,11.284-57.844,12.959-62.622,26.206-2.784,7.717,5.427,21.438,8.955,31.749,1.518,4.436,16.282,24.422,16.282,24.422s25.119-6.5,30.906-7.425c9.495-1.523,61.459-21.519,77.276-30.022,16.573-8.911,33.214-13.682,49.337-23.389,5.894-3.547,17.371-10.878,20.348-17.259C6237.646,6509.946,6240.632,6496.814,6239.031,6490.013Z" transform="translate(-6030.875 -6456.048)" fill="#36303a"/>
          </g>
          <g id="Group_17501" data-name="Group 17501" transform="translate(200.202 345.417)">
            <path id="Path_28277" data-name="Path 28277" d="M6175.763,6491.886c-6.4,2.637-12.994,5.017-19.252,7.985-3.716,1.763-6.23,4.489-8.822,7.273a34.446,34.446,0,0,1,10.068-11.584c1-.729.03-2.413-.979-1.674a36.757,36.757,0,0,0-12.8,16.718.924.924,0,0,0-.053.318c-.2.178-.381.362-.584.537-4.787,4.1-10.667,6.63-16.3,9.324-6.021,2.883-11.279,7.193-17.266,9.966-5.21,2.414-10.372,3.673-14.949,7.372-4.836,3.908-7.933,9.62-13.359,12.827-5.594,3.307-12.39,4.441-18.366,6.935A92.534,92.534,0,0,0,6045.2,6567.9c-1.009.717-.042,2.4.979,1.675a90.44,90.44,0,0,1,19.14-10.512c5.418-2.135,11.349-3.247,16.481-6.06,4.829-2.646,7.817-7.094,11.588-10.938,5.03-5.126,10.871-6.6,17.162-9.5,5.2-2.4,9.642-6.249,14.8-8.813,5.272-2.618,10.782-4.856,15.688-8.15,5.17-3.471,8.339-9.082,13.468-12.455,6.362-4.185,14.738-6.5,21.767-9.391C6177.417,6493.287,6176.918,6491.41,6175.763,6491.886Z" transform="translate(-6044.774 -6491.809)" fill="#1a161c"/>
          </g>
          <g id="Group_17502" data-name="Group 17502" transform="translate(203.286 362.656)">
            <path id="Path_28278" data-name="Path 28278" d="M6067.427,6538.261c-.777-4.157-1.684-8.284-2.672-12.4-.292-1.212-2.162-.7-1.87.516,1.13,4.7,2.147,9.421,3,14.18.574,3.216,2.2,6.793-.909,9.311-1.6,1.3-4.61,1.951-6.883,2.475a17.823,17.823,0,0,0,.248-4.279c-.577-7.186-5.446-13.158-5.656-20.446-.036-1.245-1.976-1.251-1.939,0,.223,7.757,5.781,14.237,5.713,21.959-.031,3.662-1.4,7.151-1.427,10.824-.032,4.187,1.189,8.276,2.355,12.252a.971.971,0,0,0,1.87-.516c-1.285-4.38-2.592-8.864-2.208-13.479a39.783,39.783,0,0,1,.668-4.234c3.668-.9,10.65-2.115,11.076-6.813C6069.06,6544.655,6067.964,6541.143,6067.427,6538.261Z" transform="translate(-6050.743 -6525.172)" fill="#1a161c"/>
          </g>
          <g id="Group_17503" data-name="Group 17503" transform="translate(69.132 348.289)">
            <path id="Path_28279" data-name="Path 28279" d="M5904.5,6558.739c-2.126-1.923-5.655-3.208-8.175-4.622l-9.01-5.052c-12.433-6.973-25.02-13.03-37.911-19.065-5.62-2.631-10.958-5.823-16.6-8.407a59.056,59.056,0,0,0-7.67-2.968c-2.034-.606-3.751-.818-5.3-1.439a18.584,18.584,0,0,0-3.436-14.782c-.743-.983-2.428-.018-1.675.979a16.713,16.713,0,0,1,3.308,12.807,8.985,8.985,0,0,1-1.96-2.136c-5.936-8.739-12.938-14.919-23.736-16.671-1.221-.2-1.746,1.67-.516,1.87a31.345,31.345,0,0,1,15.611,7.1,30.1,30.1,0,0,1,5.507,6.219c1.1,1.656,1.808,4.151,3.373,5.458,2.755,2.3,7.986,2.247,11.325,3.485,5.713,2.119,11,5.218,16.4,8,10.684,5.493,21.821,9.876,32.372,15.683,5.514,3.035,10.99,6.143,16.48,9.221,2.787,1.563,6.624,2.951,9.011,5.053,3.1,2.729,2.923,7.631,3.254,11.545.1,1.234,2.045,1.245,1.939,0C5906.775,6567.282,5907.53,6561.479,5904.5,6558.739Z" transform="translate(-5791.114 -6497.368)" fill="#1a161c"/>
          </g>
          <g id="Group_17504" data-name="Group 17504" transform="translate(127.394 357.62)">
            <path id="Path_28280" data-name="Path 28280" d="M5944.932,6548.763a29.947,29.947,0,0,0-6.7-9.538c-3.815-3.574-8.187-5.419-11.07-10.018-4.578-7.3-14.058-11.436-22.1-13.74a.971.971,0,0,0-.516,1.87,60.7,60.7,0,0,1,13.923,6.221,18.971,18.971,0,0,1,6.592,5.913,36.1,36.1,0,0,0,2.8,4.245c2.235,2.471,5.393,3.8,7.924,5.926a28.262,28.262,0,0,1,7.468,10.1C5943.775,6550.875,5945.447,6549.891,5944.932,6548.763Z" transform="translate(-5903.869 -6515.425)" fill="#1a161c"/>
          </g>
          <g id="Group_17505" data-name="Group 17505" transform="translate(87.617 250.899)">
            <path id="Path_28281" data-name="Path 28281" d="M5864.542,6313.564c-8.786-4.562-19.372-6.912-28.463-1.742-7.086,4.03-11.416,12.951-8,20.821,4.209,9.707,15.558,8.17,23.174,5.32,3.968-1.485,9.123-5.248,11.489-9.028,2.5-4,1.771-9.089,1.1-13.487a.838.838,0,0,0-.054-.145C5864.793,6315.561,5865.572,6314.1,5864.542,6313.564Z" transform="translate(-5826.887 -6308.888)" fill="#ffaa9c"/>
          </g>
          <g id="Group_17506" data-name="Group 17506" transform="translate(137.979 275.423)">
            <path id="Path_28282" data-name="Path 28282" d="M5985.139,6393.124s-18.908-17.679-28.443-23.819c-8.265-5.324-26.277-11.392-30.926-12.912a.867.867,0,0,0-1.135.816l-.281,14.7Z" transform="translate(-5924.354 -6356.349)" fill="#fff"/>
          </g>
          <g id="Group_17513" data-name="Group 17513" transform="translate(125.286 279.409)">
            <g id="Group_17507" data-name="Group 17507" transform="translate(73.478)">
              <path id="Path_28283" data-name="Path 28283" d="M6114.593,6369.761s-6.908-5.7-8.363-5.7-17.7,6.546-30.787,11.515-33.452,21.274-33.452,21.274,39.392-2.124,39.755-2.245S6114.593,6369.761,6114.593,6369.761Z" transform="translate(-6041.991 -6364.063)" fill="#fff"/>
            </g>
            <g id="Group_17508" data-name="Group 17508" transform="translate(3.784 1.549)">
              <path id="Path_28284" data-name="Path 28284" d="M5907.113,6372.3s3.273-4.606,4.727-5.213,26.181,9.4,38.3,14.819,28.1,17.664,28.1,17.664-2.65,5.091-12.226,3.515-29.21-5.454-36.967-9.938S5907.113,6372.3,5907.113,6372.3Z" transform="translate(-5907.113 -6367.062)" fill="#fff"/>
            </g>
            <g id="Group_17509" data-name="Group 17509" transform="translate(0 3.277)">
              <path id="Path_28285" data-name="Path 28285" d="M5982.952,6398.875h-16.495a1.65,1.65,0,0,1-.672-.142l-63.662-28.183a1.662,1.662,0,0,0-2.33,1.639l5.144,71.694a1.662,1.662,0,0,0,1.019,1.415l60.378,25.143h16.741l60.378-25.143a1.664,1.664,0,0,0,1.019-1.415l5.144-71.694a1.662,1.662,0,0,0-2.33-1.639l-63.661,28.183A1.654,1.654,0,0,1,5982.952,6398.875Z" transform="translate(-5899.789 -6370.405)" fill="#f8f0ec"/>
            </g>
            <g id="Group_17510" data-name="Group 17510" transform="translate(67.175 88.722)">
              <rect id="Rectangle_26833" data-name="Rectangle 26833" width="15.757" height="4.606" fill="#fff"/>
            </g>
            <g id="Group_17511" data-name="Group 17511" transform="translate(64.913 31.819)">
              <path id="Path_28286" data-name="Path 28286" d="M6027.03,6496.041a.969.969,0,0,1-.97-.96l-.646-68.458a.969.969,0,0,1,.96-.979h.01a.97.97,0,0,1,.969.96l.646,68.459a.968.968,0,0,1-.96.979Z" transform="translate(-6025.415 -6425.644)" fill="#dbcbc3"/>
            </g>
            <g id="Group_17512" data-name="Group 17512" transform="translate(82.527 31.819)">
              <path id="Path_28287" data-name="Path 28287" d="M6060.474,6496.041a.969.969,0,0,1-.97-.969v-68.458a.97.97,0,0,1,1.939,0v68.458A.969.969,0,0,1,6060.474,6496.041Z" transform="translate(-6059.504 -6425.644)" fill="#dbcbc3"/>
            </g>
          </g>
          <g id="Group_17518" data-name="Group 17518" transform="translate(110.483 255.126)">
            <g id="Group_17514" data-name="Group 17514">
              <path id="Path_28288" data-name="Path 28288" d="M5903.176,6326.11c-4.273-3.948-9.669-8.567-15.76-9.01-7.6-.553-17.381,6.361-16.171,14.69.607,4.18,4.33,3.315,6.97,5.575a27.946,27.946,0,0,1,5.03,4.653c1.186,1.465,3.957,4.737,6.181,3.939,3.777-1.356-2.678-10.424-2.678-10.424s2.411,2.212,4.582,4.616c1.882,2.084,2,4.008,2.988,6.376a3.292,3.292,0,0,0,1.292,1.81c2.334,1.474,4.195-1.923,4.195-1.924.021-.036,1.11.388,1.264.424,2.427.577,3.186-3.354,3.386-5.059a14.268,14.268,0,0,0-1.393-7.345,17.16,17.16,0,0,0-.993-1.6c.175.1.348.2.523.3,1.068.579,3.08,1.971,4.47,1.358C5911.074,6332.718,5904.274,6327.125,5903.176,6326.11Z" transform="translate(-5871.142 -6317.069)" fill="#ffaa9c"/>
            </g>
            <g id="Group_17515" data-name="Group 17515" transform="translate(9.934 13.425)">
              <path id="Path_28289" data-name="Path 28289" d="M5895.512,6346.024a18.755,18.755,0,0,0-3.7-2.834.97.97,0,0,0-.978,1.675,16.689,16.689,0,0,1,3.3,2.529C5895.031,6348.271,5896.4,6346.9,5895.512,6346.024Z" transform="translate(-5890.367 -6343.05)" fill="#f07d67"/>
            </g>
            <g id="Group_17516" data-name="Group 17516" transform="translate(20.766 5.55)">
              <path id="Path_28290" data-name="Path 28290" d="M5921.961,6335.5a31.02,31.02,0,0,0-9.167-7.562c-1.093-.6-2.083,1.071-.985,1.67a29.624,29.624,0,0,1,8.758,7.24C5921.362,6337.812,5922.75,6336.456,5921.961,6335.5Z" transform="translate(-5911.331 -6327.811)" fill="#f07d67"/>
            </g>
            <g id="Group_17517" data-name="Group 17517" transform="translate(15.606 8.252)">
              <path id="Path_28291" data-name="Path 28291" d="M5915.8,6350.712c-.282-3.31-.83-6.191-2.938-8.857a32.256,32.256,0,0,0-10.05-8.7c-1.1-.574-2.1,1.093-.985,1.67,6.17,3.211,11.433,8.821,12.033,15.875C5913.968,6351.937,5915.908,6351.958,5915.8,6350.712Z" transform="translate(-5901.344 -6333.04)" fill="#f07d67"/>
            </g>
          </g>
          <g id="Group_17519" data-name="Group 17519" transform="translate(254.682 315.594)">
            <path id="Path_28292" data-name="Path 28292" d="M6186.257,6439.829c-.866-1.512-3.312-5.737-3.312-5.737a17.038,17.038,0,0,0-4.9.914c-.024,0-.044,0-.068,0-4.947.985-7.471,4.839-10.794,8.282a43.3,43.3,0,0,1-7.364,6.118c-1.63,1.071-4.332,1.853-5.556,3.389-1.163,1.46-1.011,3.171.923,3.937a3.331,3.331,0,0,0,.58.119c-1.053.544-2.1,1.107-3.146,1.737-1.405.851-3.194,2.343-2.042,4.13a2.617,2.617,0,0,0,2.8,1.135c-.063,1.8,2.483,2.819,4.509,2.639a23.1,23.1,0,0,0,3.12-.522c.459,3.735,4.992,2.228,8.029.783,6.888-3.275,19.951-20.313,19.951-20.313A55.194,55.194,0,0,0,6186.257,6439.829Z" transform="translate(-6150.209 -6434.092)" fill="#ffaa9c"/>
          </g>
          <g id="Group_17520" data-name="Group 17520" transform="translate(272.307 312.413)">
            <path id="Path_28293" data-name="Path 28293" d="M6184.319,6439.7l.678-10.033s7.552-2.571,10.542-1.439a7.181,7.181,0,0,1,3.891,2.893l-6.315,9.712Z" transform="translate(-6184.319 -6427.936)" fill="#ffaa9c"/>
          </g>
          <g id="Group_17521" data-name="Group 17521" transform="translate(281.669 282.762)">
            <path id="Path_28294" data-name="Path 28294" d="M6202.437,6401.541s12.929-23.109,18.585-28.281,16.484-2.1,20.363,2.263,4.848,9.373,0,15.676-27.158,24.533-27.158,24.533-10.012.227-10.012-1S6202.437,6401.541,6202.437,6401.541Z" transform="translate(-6202.437 -6370.553)" fill="#ffaa9c"/>
          </g>
          <g id="Group_17522" data-name="Group 17522" transform="translate(103.658 254.548)">
            <path id="Path_28295" data-name="Path 28295" d="M5875.452,6316.059c-4.425-.555-6.349,1.073-9.8,3.445-2.713,1.863-5.609,3.409-7.021,6.577a7.316,7.316,0,0,0,.649,7.383c2.017,2.546,6.19,2.967,9.118,3.637,1.215.278,1.733-1.591.515-1.87a32.009,32.009,0,0,1-5.923-1.559c-4.518-2.032-3.431-6.877-.443-9.64,3.333-3.082,8.327-6.609,12.908-6.034C5876.688,6318.153,5876.677,6316.212,5875.452,6316.059Z" transform="translate(-5857.933 -6315.95)" fill="#f07d67"/>
          </g>
          <g id="Group_17523" data-name="Group 17523" transform="translate(261.113 328.674)">
            <path id="Path_28296" data-name="Path 28296" d="M6175.533,6459.674a33.028,33.028,0,0,1-12.208,7.25c-1.179.392-.673,2.266.516,1.87a35.4,35.4,0,0,0,13.063-7.748C6177.819,6460.193,6176.446,6458.824,6175.533,6459.674Z" transform="translate(-6162.655 -6459.406)" fill="#f07d67"/>
          </g>
          <g id="Group_17524" data-name="Group 17524" transform="translate(259.461 333.786)">
            <path id="Path_28297" data-name="Path 28297" d="M6176.7,6469.586a33.536,33.536,0,0,1-16.543,9.188c-1.216.28-.7,2.149.515,1.87a35.472,35.472,0,0,0,17.4-9.687A.971.971,0,0,0,6176.7,6469.586Z" transform="translate(-6159.459 -6469.299)" fill="#f07d67"/>
          </g>
          <g id="Group_17525" data-name="Group 17525" transform="translate(266.841 338.006)">
            <path id="Path_28298" data-name="Path 28298" d="M6185.563,6477.758a27.244,27.244,0,0,1-11.15,7c-1.181.389-.675,2.262.515,1.87a29.353,29.353,0,0,0,12.007-7.5C6187.8,6478.233,6186.434,6476.86,6185.563,6477.758Z" transform="translate(-6173.74 -6477.466)" fill="#f07d67"/>
          </g>
          <g id="Group_17526" data-name="Group 17526" transform="translate(144.1 282.44)">
            <path id="Path_28299" data-name="Path 28299" d="M5982.744,6397.2a.96.96,0,0,1-.623-.227c-.1-.085-10.24-8.564-20.385-13.712-10.217-5.187-24.8-11.408-24.946-11.471a.97.97,0,0,1,.762-1.784c.146.063,14.786,6.311,25.063,11.524,10.348,5.252,20.65,13.871,20.753,13.958a.97.97,0,0,1-.624,1.712Z" transform="translate(-5936.201 -6369.929)" fill="#f5d2b5"/>
          </g>
          <g id="Group_17527" data-name="Group 17527" transform="translate(209.235 281.717)">
            <path id="Path_28300" data-name="Path 28300" d="M6063.226,6395.434a.969.969,0,0,1-.492-1.8c.843-.5,20.722-12.2,29.656-15.819,8.89-3.606,24.974-9.17,25.137-9.227a.97.97,0,1,1,.632,1.833c-.161.055-16.2,5.606-25.042,9.188-8.8,3.568-29.193,15.574-29.4,15.695A.967.967,0,0,1,6063.226,6395.434Z" transform="translate(-6062.256 -6368.531)" fill="#f5d2b5"/>
          </g>
          <g id="Group_17528" data-name="Group 17528" transform="translate(229.712 351.324)">
            <path id="Path_28301" data-name="Path 28301" d="M6101.885,6512.812v8.045l25.453-9.857.485-7.758Z" transform="translate(-6101.885 -6503.241)" fill="#fff"/>
          </g>
          <g id="Group_17529" data-name="Group 17529" transform="translate(232.823 298.153)">
            <path id="Path_28302" data-name="Path 28302" d="M6108.875,6410.806a.97.97,0,0,1-.382-1.861l19.878-8.528a.97.97,0,1,1,.765,1.784l-19.878,8.528A.976.976,0,0,1,6108.875,6410.806Z" transform="translate(-6107.905 -6400.339)" fill="#fff"/>
          </g>
          <g id="Group_17530" data-name="Group 17530" transform="translate(221.77 300.26)">
            <path id="Path_28303" data-name="Path 28303" d="M6087.485,6423.985a.97.97,0,0,1-.382-1.862l41.094-17.63a.971.971,0,0,1,.766,1.784l-41.095,17.63A.979.979,0,0,1,6087.485,6423.985Z" transform="translate(-6086.515 -6404.417)" fill="#fff"/>
          </g>
          <g id="Group_17531" data-name="Group 17531" transform="translate(221.77 307.509)">
            <path id="Path_28304" data-name="Path 28304" d="M6087.485,6438.016a.97.97,0,0,1-.382-1.861l41.094-17.631a.97.97,0,1,1,.766,1.783l-41.095,17.631A.97.97,0,0,1,6087.485,6438.016Z" transform="translate(-6086.515 -6418.445)" fill="#fff"/>
          </g>
          <g id="Group_17532" data-name="Group 17532" transform="translate(194.4 315.594)">
            <path id="Path_28305" data-name="Path 28305" d="M6045.165,6437.211c0,1.722-2.6,3.118-5.81,3.118s-5.809-1.4-5.809-3.118,2.6-3.119,5.809-3.119S6045.165,6435.488,6045.165,6437.211Z" transform="translate(-6033.547 -6434.092)" fill="#fff"/>
          </g>
          <g id="Group_17533" data-name="Group 17533" transform="translate(134.162 352.498)">
            <path id="Path_28306" data-name="Path 28306" d="M5933.936,6514.117a.99.99,0,0,1-.374-.074l-16-6.666a.971.971,0,1,1,.747-1.792l16,6.667a.97.97,0,0,1-.373,1.865Z" transform="translate(-5916.966 -6505.512)" fill="#fff"/>
          </g>
          <g id="Group_17534" data-name="Group 17534" transform="translate(147.894 122.184)">
            <path id="Path_28307" data-name="Path 28307" d="M5952.287,6087.953c-2.848-9.212-3.137-18.667-6.982-27.659-.489-1.144-2.16-.158-1.675.979,3.776,8.83,4,18.148,6.788,27.2,2.625,8.51,7.618,16.133,8.322,25.188.1,1.236,2.037,1.247,1.939,0C5959.958,6104.385,5954.981,6096.662,5952.287,6087.953Z" transform="translate(-5943.542 -6059.785)" fill="#b54848"/>
          </g>
          <g id="Group_17535" data-name="Group 17535" transform="translate(161.095 106.6)">
            <path id="Path_28308" data-name="Path 28308" d="M5970.941,6030.055c-.713-1.013-2.4-.045-1.674.979a24.169,24.169,0,0,1,4.25,10.8c.17,1.231,2.039.708,1.871-.515A25.421,25.421,0,0,0,5970.941,6030.055Z" transform="translate(-5969.091 -6029.626)" fill="#b54848"/>
          </g>
          <g id="Group_17536" data-name="Group 17536" transform="translate(222.593 129.914)">
            <path id="Path_28309" data-name="Path 28309" d="M6125.141,6075.246c-2.652,5.72-2.509,12.261-5.754,17.745-3.4,5.741-8.943,10.36-13.067,15.595a129.789,129.789,0,0,0-18.136,31.368c-.471,1.155,1.4,1.658,1.871.515a126.472,126.472,0,0,1,20.809-34.381c3.575-4.187,7.879-7.978,10.6-12.822,2.974-5.3,2.819-11.57,5.357-17.041C6127.338,6075.1,6125.667,6074.114,6125.141,6075.246Z" transform="translate(-6088.108 -6074.745)" fill="#b54848"/>
          </g>
          <g id="Group_17537" data-name="Group 17537" transform="translate(198.963 276.981)">
            <path id="Path_28310" data-name="Path 28310" d="M6045.841,6370.607c-.345-3.481-2.3-6.469-1.2-10.049.367-1.2-1.5-1.707-1.87-.516-1.05,3.426.254,6.14.919,9.5.793,4-1.27,7.729-.417,11.715.261,1.22,2.131.7,1.871-.516C6044.411,6377.317,6046.182,6374.062,6045.841,6370.607Z" transform="translate(-6042.376 -6359.365)" fill="#b54848"/>
          </g>
          <g id="Group_17538" data-name="Group 17538" transform="translate(100.971 171.605)">
            <path id="Path_28311" data-name="Path 28311" d="M5878.887,6207.32a38.293,38.293,0,0,0-4.151-15.352c-5.979-12.433-14.753-23.028-20.056-35.9-.469-1.138-2.346-.64-1.87.516,4.972,12.064,12.624,22.187,18.807,33.557,3.5,6.441,5.7,13.187,5.247,20.583-.392,6.392-1.89,12.452-.537,18.841.259,1.22,2.129.7,1.87-.516C5876.646,6221.729,5879.109,6214.654,5878.887,6207.32Z" transform="translate(-5852.732 -6155.429)" fill="#b54848"/>
          </g>
          <g id="Group_17539" data-name="Group 17539" transform="translate(79.615 240.049)">
            <path id="Path_28312" data-name="Path 28312" d="M5853.771,6297c-6.642-4.711-13.261-8.638-21.579-9.071a32.635,32.635,0,0,0-20.358,5.913c-1.018.707-.049,2.389.979,1.675a30.869,30.869,0,0,1,19.38-5.648c7.934.425,14.285,4.327,20.6,8.806C5853.813,6299.4,5854.782,6297.721,5853.771,6297Z" transform="translate(-5811.402 -6287.89)" fill="#b54848"/>
          </g>
          <g id="Group_17540" data-name="Group 17540" transform="translate(278.478 161.259)">
            <path id="Path_28313" data-name="Path 28313" d="M6233.5,6233.1c-8.1,2.377-16.359.8-24.185,4.729a23.774,23.774,0,0,0-8.825,7.5,87.792,87.792,0,0,0,2.084-11.941c.885-10.729-1.41-21.382-1.771-32.079-.359-10.636,3.416-20.246,4.306-30.68.963-11.291-.449-22.985-.971-34.283-.058-1.243-2-1.25-1.939,0,.522,11.3,1.958,23,.972,34.283-.522,5.976-2.417,11.643-3.471,17.519a65.158,65.158,0,0,0-.759,14.9c.548,10.661,2.792,21.366,1.527,32.059-.653,5.539-2.651,10.762-3.615,16.235a43.785,43.785,0,0,0-.025,14.2c.184,1.23,2.053.707,1.869-.516a39.526,39.526,0,0,1,.357-12.637.986.986,0,0,0,.222-.377c2.369-7.288,8.334-12.1,15.536-14.268,6.291-1.893,12.932-.924,19.205-2.766A.97.97,0,0,0,6233.5,6233.1Z" transform="translate(-6196.262 -6135.407)" fill="#b54848"/>
          </g>
          <g id="Group_17541" data-name="Group 17541" transform="translate(288.474 250.065)">
            <path id="Path_28314" data-name="Path 28314" d="M6243,6309.368c-9.045-2.465-18.334-3.468-26.9,1.049-1.1.583-.125,2.257.979,1.674,8.123-4.282,16.884-3.176,25.408-.854A.97.97,0,0,0,6243,6309.368Z" transform="translate(-6215.608 -6307.274)" fill="#b54848"/>
          </g>
        </g>
      </g>
    </g>
    <g id="Group_17546" data-name="Group 17546" transform="translate(506.336 800.12)">
      <circle id="Ellipse_6655" data-name="Ellipse 6655" cx="48.393" cy="48.393" r="48.393" transform="translate(141.663 331.88)" fill="#ff6478"/>
      <g id="Group_17545" data-name="Group 17545">
        <path id="Path_28315" data-name="Path 28315" d="M217.406,367.84l-1.446-.309-6.482,30.378a4.529,4.529,0,0,1-5.362,3.393l-13.266-2.831a4.439,4.439,0,0,1-8.185-1.747L169.4,393.893a4.527,4.527,0,0,1-3.51-5.286l6.482-30.377-1.447-.308a1.478,1.478,0,0,0-1.755,1.137l-7.408,34.717a1.478,1.478,0,0,0,1.138,1.755L179.154,399a4.447,4.447,0,0,0,3.476,3.766L188.416,404a4.445,4.445,0,0,0,4.709-2.02l16.256,3.469a1.478,1.478,0,0,0,1.755-1.138l7.408-34.717a1.478,1.478,0,0,0-1.138-1.755Zm0,0" fill="#fff"/>
        <path id="Path_28316" data-name="Path 28316" d="M186.154,393.336l7.08-33.18a15.613,15.613,0,0,0-9.406-5.531,1.478,1.478,0,0,0-1.755,1.138L175.9,384.694a1.479,1.479,0,0,0,1.138,1.755c6.691,1.428,8.692,5.724,9.117,6.887Zm0,0" fill="#fff"/>
        <path id="Path_28317" data-name="Path 28317" d="M204.733,398.409a1.478,1.478,0,0,0,1.755-1.138l6.791-31.824a1.477,1.477,0,0,0-1.138-1.755l-11.572-2.47a7.329,7.329,0,0,0-4.656.558l-7.4,34.68a1.481,1.481,0,0,1,1.756-1.138Zm0,0" fill="#fff"/>
        <path id="Path_28318" data-name="Path 28318" d="M177.424,356.284a1.478,1.478,0,0,0-1.755,1.138l-6.791,31.823A1.478,1.478,0,0,0,170.016,391l13.1,2.8c-.6-1.155-2.318-3.519-6.7-4.454a4.444,4.444,0,0,1-3.414-5.266l5.865-27.484Zm0,0" fill="#fff"/>
      </g>
    </g>
    <g id="Group_17547" data-name="Group 17547" transform="translate(-975.483 1058.765)">
      <circle id="Ellipse_6656" data-name="Ellipse 6656" cx="48.393" cy="48.393" r="48.393" transform="translate(1102.483 297.235)" fill="#007aff"/>
      <path id="Path_28319" data-name="Path 28319" d="M1123.8,361.651a10.755,10.755,0,0,0,21.149-1.529l10.482-2.59a5.04,5.04,0,0,0,3.815-5.105l-.059-1.3a15.619,15.619,0,0,1,2.574-9.229l2.02,1.836a10.741,10.741,0,1,0,6.46-4.659,11.037,11.037,0,0,0-4.051,2l-2.176-1.978a15.635,15.635,0,0,1,7.108-3.938,1.794,1.794,0,0,0,1.312-2.173l-.862-3.485a12.58,12.58,0,0,0-15.212-9.184l-3.485.862a1.795,1.795,0,0,0,.861,3.485l1.743-.431.861,3.485-5.228,1.292a1.8,1.8,0,0,0-1.258,1.135l-1.136,3.155-14.632,3.616-1.2-1.1a5.017,5.017,0,0,0-4.6-1.17l-8.777,2.17a1.794,1.794,0,0,0-1.312,2.173,8.99,8.99,0,0,0,9.885,6.746l3.264,2.983A10.764,10.764,0,0,0,1123.8,361.651Zm42.706-15.435,5.112,4.647a1.794,1.794,0,0,0,2.413-2.655l-5.113-4.648a6.314,6.314,0,0,1,2.184-.995,7.18,7.18,0,1,1,3.445,13.94,7.263,7.263,0,0,1-8.693-5.247A7.061,7.061,0,0,1,1166.51,346.216Zm-33.973,5.881a7.118,7.118,0,0,1,2.337-.155l.834.763a5.012,5.012,0,0,0,4.6,1.17l-6.9,1.707a3.584,3.584,0,1,0,1.719,6.959l6.024-1.489a7.172,7.172,0,1,1-8.6-8.955Z" fill="#fff"/>
    </g>
    <g id="Group_17549" data-name="Group 17549" transform="translate(-510.232 1288.322)">
      <path id="Path_28320" data-name="Path 28320" d="M1365.788,164.942h-.58V144.3l-21.867-13.524a1.121,1.121,0,0,0-1.178,0L1320.3,144.3v20.645h-.581a1.749,1.749,0,0,0,0,3.5h46.072a1.749,1.749,0,1,0,0-3.5Zm-15.624-17.616a.511.511,0,0,1-.528.529h-2.773a6.181,6.181,0,0,1-2.13,3.862,8.369,8.369,0,0,1-4.556,1.815q2.757,2.938,7.577,8.849a.45.45,0,0,1,.065.561.477.477,0,0,1-.478.3h-3.219a.487.487,0,0,1-.412-.2q-5.052-6.059-8.222-9.426a.492.492,0,0,1-.148-.363v-2.1a.534.534,0,0,1,.528-.528h1.849a7.445,7.445,0,0,0,3.507-.711,3.221,3.221,0,0,0,1.693-2.063h-7.049a.509.509,0,0,1-.528-.529v-1.684a.51.51,0,0,1,.528-.528h6.818q-.942-1.865-4.425-1.865h-2.393a.534.534,0,0,1-.528-.528v-2.2a.509.509,0,0,1,.528-.529H1349.6a.508.508,0,0,1,.528.529v1.684a.507.507,0,0,1-.528.528h-3.845a5.711,5.711,0,0,1,1.056,2.377h2.823a.51.51,0,0,1,.528.528Z" fill="#fff"/>
      <circle id="Ellipse_6657" data-name="Ellipse 6657" cx="44.089" cy="44.089" r="44.089" transform="translate(1301.85 106.501)" fill="#e15d3d"/>
      <g id="Group_17548" data-name="Group 17548">
        <path id="Path_28321" data-name="Path 28321" d="M1338.875,153.8a3.406,3.406,0,0,1-1.716-2.954,9.465,9.465,0,0,1,9.454-9.454h3.9l.184-3.026h-22.076l1.586,26.162a1.134,1.134,0,0,0,1.132,1.066h6.961a5.645,5.645,0,0,1-1.137-3.4,3.408,3.408,0,0,1,2.248-3.2,4.524,4.524,0,0,1,0-4.945c-.37-.084-.575-.166-.533-.245Zm0,0" fill="#fff"/>
        <path id="Path_28322" data-name="Path 28322" d="M1339.654,136.1H1351a1.134,1.134,0,0,0,0-2.269h-9.251l3.058-4.689h3.924a1.135,1.135,0,0,0,0-2.269h-4.538a1.133,1.133,0,0,0-.95.515l-4.2,6.443h-10.73a1.134,1.134,0,1,0,0,2.269h11.344Zm0,0" fill="#fff"/>
        <path id="Path_28323" data-name="Path 28323" d="M1339.428,150.848a1.134,1.134,0,0,0,1.134,1.134h24.2a1.135,1.135,0,0,0,1.135-1.134,7.194,7.194,0,0,0-7.185-7.185h-12.1a7.193,7.193,0,0,0-7.185,7.185Zm0,0" fill="#fff"/>
        <path id="Path_28324" data-name="Path 28324" d="M1343.21,154.251a2.269,2.269,0,0,0,0,4.538h18.908a2.269,2.269,0,0,0,0-4.538Zm0,0" fill="#fff"/>
        <path id="Path_28325" data-name="Path 28325" d="M1364.765,161.058h-24.2a1.135,1.135,0,0,0-1.134,1.135,3.407,3.407,0,0,0,3.4,3.4H1362.5a3.408,3.408,0,0,0,3.4-3.4,1.135,1.135,0,0,0-1.135-1.135Zm0,0" fill="#fff"/>
      </g>
    </g>
    <g id="Group_17553" data-name="Group 17553" transform="translate(-1179.803 -653.6)">
      <circle id="Ellipse_6658" data-name="Ellipse 6658" cx="57.935" cy="57.935" r="57.935" transform="translate(1488.716 1753.6)" fill="#4fc0ee"/>
      <g id="Group_17552" data-name="Group 17552">
        <g id="Group_17551" data-name="Group 17551">
          <g id="Group_17550" data-name="Group 17550" clip-path="url(#clip-path)">
            <path id="Path_28326" data-name="Path 28326" d="M1589.056,1815.93a.4.4,0,0,0-.328-.035l-73.123,24.5a.4.4,0,0,0-.227.553c.035.067,3.407,6.468,11.967,3.6l54.514-18.263c8.563-2.868,7.4-10.008,7.383-10.082a.385.385,0,0,0-.186-.271Zm-29.748,15.271-11,3.686-.847-2.53,11-3.686Zm0,0" fill="#fff"/>
          </g>
        </g>
        <path id="Path_28327" data-name="Path 28327" d="M1522.32,1835.217l57.93-19.407a1.6,1.6,0,0,0,1.01-2.027l-11.919-35.581a1.6,1.6,0,0,0-2.028-1.009l-57.93,19.407a1.6,1.6,0,0,0-1.009,2.027l11.919,35.58a1.6,1.6,0,0,0,2.027,1.01Zm-7.365-34.577,50.345-16.865,9.378,27.995-50.344,16.865Zm0,0" fill="#fff"/>
      </g>
    </g>
  </g>
</svg>
